<?xml version="1.0" encoding="UTF-8" standalone="no"?>
<!-- Created with Inkscape (http://www.inkscape.org/) -->

<svg
   width="1920"
   height="1080"
   viewBox="0 0 1920 1080"
   version="1.1"
   id="svg1"
   xml:space="preserve"
   inkscape:version="1.4.2 (ebf0e940d0, 2025-05-08)"
   sodipodi:docname="archlinux-02.svg"
   inkscape:export-filename="../../.wallpaper/archlinux.png"
   inkscape:export-xdpi="96"
   inkscape:export-ydpi="96"
   xmlns:inkscape="http://www.inkscape.org/namespaces/inkscape"
   xmlns:sodipodi="http://sodipodi.sourceforge.net/DTD/sodipodi-0.dtd"
   xmlns="http://www.w3.org/2000/svg"
   xmlns:svg="http://www.w3.org/2000/svg"><sodipodi:namedview
     id="namedview1"
     pagecolor="#505050"
     bordercolor="#eeeeee"
     borderopacity="1"
     inkscape:showpageshadow="0"
     inkscape:pageopacity="0"
     inkscape:pagecheckerboard="0"
     inkscape:deskcolor="#505050"
     inkscape:document-units="px"
     inkscape:zoom="0.33385417"
     inkscape:cx="1243.0577"
     inkscape:cy="360.93604"
     inkscape:window-width="1898"
     inkscape:window-height="1022"
     inkscape:window-x="10"
     inkscape:window-y="46"
     inkscape:window-maximized="1"
     inkscape:current-layer="layer1" /><defs
     id="defs1" /><g
     inkscape:label="Layer 1"
     inkscape:groupmode="layer"
     id="layer1"><rect
       style="fill:#2e3440"
       id="rect1"
       width="1920"
       height="1080"
       x="0"
       y="0" /><g
       id="g4"
       transform="matrix(1.7147738,0,0,1.7147738,-494.23781,2011.2937)"><g
         id="g6"
         transform="translate(-77.769421,85.035866)"><path
           style="fill:#a3be8c;stroke-width:0.15567"
           d="m 1039.4562,-770.65355 c -3.378,-0.32454 -5.5629,-0.88975 -7.9899,-2.06685 -4.7146,-2.28663 -7.963,-6.53808 -9.0397,-11.83085 -0.1495,-0.73533 -0.1588,-1.15187 -0.2163,-9.7184 -0.033,-4.92259 -0.086,-14.3278 -0.1174,-20.9005 l -0.057,-11.95033 3.4094,-0.69523 c 1.8752,-0.38237 3.4203,-0.68652 3.4337,-0.67588 0.013,0.0106 0.053,9.19284 0.088,20.40492 l 0.064,20.38558 0.195,0.84509 c 1.1049,4.78967 4.253,8.15087 8.7007,9.28963 1.5742,0.40306 2.1407,0.46176 4.4494,0.46102 2.2974,0 3.1129,-0.0754 5.0321,-0.46085 1.9201,-0.3856 3.3992,-0.88745 5.1857,-1.75943 4.6141,-2.25218 7.8297,-6.18406 9.0174,-11.02593 0.5466,-2.22844 0.5089,-0.79099 0.5089,-19.43057 v -16.7801 l 3.1384,-0.79878 c 1.7261,-0.43932 3.1578,-0.7793 3.1816,-0.75551 0.041,0.041 0.2211,34.79333 0.2522,48.67364 l 0.014,6.49123 -3.0629,0.63062 c -1.6846,0.34684 -3.1407,0.63229 -3.2357,0.63433 l -0.1729,0.004 v -5.74269 c 0,-5.37454 -0.013,-5.72546 -0.1305,-5.47381 -1.2588,2.69651 -1.9235,3.75515 -3.5224,5.61039 -2.6302,3.05181 -6.6475,5.30446 -11.0159,6.177 -1.8956,0.37866 -2.5872,0.43969 -5.2625,0.46456 -1.3944,0.0129 -2.6735,0.0103 -2.8425,-0.006 z m 76.2701,-0.81236 c -0.1649,-0.22504 -4.1657,-5.78501 -8.8908,-12.3555 -4.725,-6.57049 -8.6518,-12.01106 -8.7262,-12.09015 -0.1305,-0.13874 -0.4433,0.28783 -8.835,12.04518 -4.7848,6.70396 -8.7366,12.1767 -8.7816,12.16168 -0.2051,-0.0684 -4.7296,-3.48255 -4.7054,-3.55068 0.015,-0.0423 4.18,-5.96271 9.2555,-13.15656 5.0755,-7.19386 9.2282,-13.09837 9.2282,-13.12116 0,-0.0228 -3.9107,-5.15924 -8.6906,-11.41433 -4.7799,-6.25508 -8.6605,-11.39949 -8.6236,-11.43202 0.295,-0.26047 4.3589,-3.40031 4.4305,-3.42319 0.051,-0.0162 3.7569,4.65224 8.2358,10.37434 4.4789,5.7221 8.1608,10.40309 8.1819,10.40222 0.021,-0.002 3.1498,-4.44648 6.9527,-9.87911 3.8029,-5.43263 6.951,-9.92936 6.9959,-9.99271 0.067,-0.095 0.4927,0.23266 2.42,1.86376 1.2861,1.08845 2.3384,2.00743 2.3384,2.04218 0,0.0347 -3.388,4.8215 -7.5289,10.63725 -4.1409,5.81573 -7.5915,10.67171 -7.668,10.79107 l -0.1391,0.217 9.4674,13.12245 c 5.2071,7.21735 9.5507,13.23304 9.6524,13.3682 l 0.1849,0.24575 -2.0996,1.66658 c -1.1548,0.91662 -2.1571,1.71615 -2.2273,1.77674 -0.1146,0.0988 -0.1586,0.068 -0.4275,-0.29899 z m -109.1898,-20.66822 c 0,-22.15704 0.036,-20.48703 -0.471,-21.94371 -1.1374,-3.26872 -3.6947,-6.16165 -6.80181,-7.69443 -2.27316,-1.12139 -4.77822,-1.60337 -7.86176,-1.51265 -3.60297,0.10601 -6.60282,0.85265 -9.73593,2.42324 -4.7742,2.39323 -8.5204,6.55184 -9.28347,10.30544 -0.12416,0.61076 -0.13001,1.80716 -0.0913,18.64593 l 0.0414,17.99329 -0.39503,0.112 c -1.154,0.32722 -6.12653,1.6014 -6.14953,1.57578 -0.0148,-0.0165 -0.0655,-9.36423 -0.11275,-20.7728 -0.0472,-11.40855 -0.10786,-23.81968 -0.13473,-27.58029 l -0.0489,-6.83744 3.14065,-0.6347 c 1.72737,-0.34909 3.18388,-0.6343 3.23668,-0.63381 0.0741,0 0.096,0.41114 0.096,1.79366 0,0.98602 0.023,3.56403 0.051,5.72892 l 0.0511,3.93619 0.1708,-0.41983 c 0.48838,-1.20041 1.41162,-2.83068 2.24831,-3.97012 2.05093,-2.79301 4.60887,-4.84518 7.78788,-6.24799 2.25305,-0.99422 4.6453,-1.57591 7.5053,-1.82499 1.36167,-0.11859 5.19071,-0.0492 6.3856,0.11568 5.25129,0.72473 9.20219,2.74182 12.04959,6.15191 1.8968,2.2717 3.2653,5.31722 3.6999,8.23401 0.059,0.398 0.2691,28.77266 0.305,41.24861 v 0.69854 l -0.9795,0.20779 c -0.5388,0.11428 -1.8179,0.39074 -2.8426,0.61434 l -1.863,0.40656 z m -57.16132,14.17066 c -0.002,-2.98948 -0.0504,-15.0981 -0.108,-26.90807 -0.0576,-11.80998 -0.0821,-21.49621 -0.0543,-21.52497 0.0595,-0.0618 5.56537,-2.52685 5.58558,-2.50076 0.0261,0.0336 0.10181,55.29363 0.0758,55.29363 -0.0143,0 -1.19094,0.242 -2.61479,0.53778 -1.42385,0.29577 -2.65455,0.53778 -2.73488,0.53778 -0.14214,0 -0.14616,-0.14646 -0.14937,-5.43539 z m -17.61743,-0.74298 c -0.0805,-10.34583 -0.20363,-70.67709 -0.14437,-70.72918 0.0857,-0.0753 6.33255,-1.61912 6.37593,-1.57572 0.0356,0.0356 0.31676,63.23272 0.32327,72.66228 l 0.003,4.43521 -0.17287,0.042 c -0.0951,0.0231 -1.56022,0.27712 -3.25591,0.56452 l -3.08303,0.52254 z m 197.22025,-0.0253 -0.02,-2.36237 -0.9027,-0.0216 -0.9027,-0.0216 v -0.30487 -0.30485 h 2.1511 2.1511 v 0.3073 0.30731 h -0.8835 -0.8835 v 2.38158 2.38159 h -0.3446 -0.3446 z m 3.2447,-0.3265 v -2.68888 h 0.5319 0.5319 l 0.7539,2.26635 c 0.6617,1.98878 0.8712,2.5123 0.8712,2.17664 0,-0.0493 0.3371,-1.06911 0.7491,-2.26617 l 0.749,-2.17646 0.4802,-1.5e-4 h 0.4801 v 2.68887 2.6889 h -0.3445 -0.3445 l -0.02,-2.19572 -0.02,-2.1957 -0.7602,2.1957 -0.7601,2.19572 h -0.3256 -0.3256 l -0.7729,-2.24715 -0.7729,-2.24713 v 2.24713 2.24715 h -0.3457 -0.3458 z m -181.20317,-63.66553 c -1.52495,-1.70996 -3.13914,-3.57753 -3.13914,-3.63187 0,-0.0676 4.42172,-3.68919 4.50428,-3.68919 0.0599,0 3.70305,4.03647 3.73934,4.14311 0.0128,0.0377 -0.9379,0.87152 -2.1127,1.85297 -1.17481,0.98146 -2.19268,1.83344 -2.26193,1.89331 -0.11246,0.0972 -0.19053,0.0364 -0.72985,-0.56833 z"
           id="path3"
           sodipodi:nodetypes="ssssscssscssssssscssscsscscsssssssssssssssssssssssscsscsssssssssscsssscscsscsssssssscsscssssssssssssscsscscccccccccccccccccccccsssccccccccccccccccccccsssssss" /><path
           style="fill:#bf616a;stroke-width:0.15567"
           d="m 905.43523,-771.8547 c 0,-0.60212 -0.0531,-9.9969 -0.11898,-20.87728 -0.13197,-21.79359 -0.0824,-20.07671 -0.60974,-21.12238 -0.95731,-1.89834 -2.92302,-3.48727 -5.34132,-4.31752 -1.41862,-0.48705 -2.55596,-0.67086 -4.5327,-0.73255 -3.55369,-0.11093 -6.66871,0.61771 -9.40523,2.19999 -2.65889,1.5374 -4.61399,3.81421 -5.20105,6.05692 -0.15195,0.58046 -0.15634,0.92983 -0.2369,18.83743 -0.0451,10.03533 -0.0894,18.25519 -0.0983,18.2664 -0.0409,0.0514 -14.05174,2.54882 -14.08916,2.51139 -0.0449,-0.0449 -0.16692,-76.41853 -0.12217,-76.46484 0.0145,-0.0149 3.16576,-0.76554 7.003,-1.66809 3.83725,-0.90254 7.05458,-1.6602 7.14966,-1.68371 l 0.17286,-0.0428 v 10.67538 10.67537 l -0.51859,0.4361 c -2.38135,2.00257 -5.15013,4.9192 -7.79991,8.21637 -0.50936,0.63381 -0.98086,1.21913 -1.04777,1.30072 -0.11575,0.14115 -0.11412,0.14302 0.0336,0.0384 0.0854,-0.0605 0.65583,-0.5099 1.26763,-0.99875 1.3564,-1.08385 2.65144,-2.05687 5.23832,-3.9358 1.08619,-0.78892 2.57276,-1.87757 3.3035,-2.41921 1.4378,-1.06575 1.85612,-1.32223 2.92061,-1.79066 2.13453,-0.93933 4.88422,-1.57748 8.06802,-1.87248 1.50959,-0.13988 4.82229,-0.16015 6.30748,-0.0386 6.70633,0.5488 12.85247,2.89284 17.33626,6.61174 2.17598,1.80476 3.74722,3.89999 4.18015,5.57415 0.11019,0.42607 0.12208,2.64988 0.12208,22.83487 v 22.36281 l -0.17287,0.0389 c -0.24229,0.0544 -13.68768,2.42248 -13.75464,2.42248 -0.0301,0 -0.0543,-0.49265 -0.0539,-1.09477 z m -169.59274,0.28796 c -0.0845,-0.0153 -0.53393,-0.0666 -0.99873,-0.11414 -0.46478,-0.0476 -1.4694,-0.20514 -2.23248,-0.35015 -6.49323,-1.23383 -11.76792,-4.63196 -14.90099,-9.59969 -0.5422,-0.85971 -1.46965,-2.75253 -1.83285,-3.74065 -1.25775,-3.4219 -1.79234,-7.56525 -1.50475,-11.66283 0.49417,-7.04101 3.91058,-12.16361 10.2149,-15.31636 3.17469,-1.58765 6.38968,-2.47805 10.72843,-2.97128 1.76575,-0.20073 5.05295,-0.28078 6.50387,-0.15837 3.89925,0.32894 7.06355,1.57952 9.10554,3.59864 l 0.64989,0.64263 -0.0417,-1.21397 c -0.0453,-1.31806 -0.18841,-2.16274 -0.4984,-2.94136 -0.8176,-2.0536 -2.73127,-3.2551 -6.16574,-3.87116 -1.44174,-0.25862 -2.28844,-0.31698 -4.57112,-0.3151 -1.96733,0.002 -2.49596,0.0278 -3.61079,0.17853 -3.71118,0.50185 -8.49423,1.4602 -13.82856,2.77073 -0.84507,0.20762 -1.54251,0.37158 -1.54985,0.36436 -0.0329,-0.0323 2.67172,-14.54456 2.72963,-14.64637 0.17401,-0.30589 4.36383,-1.33685 7.50149,-1.84583 3.475,-0.56371 6.56337,-0.80735 10.14094,-0.80004 5.71026,0.0117 9.80157,0.65486 13.58318,2.13535 6.14722,2.40662 9.88773,6.95868 10.99355,13.37876 0.38039,2.2085 0.37396,1.92191 0.36302,16.17085 -0.006,7.33105 -0.0324,16.6369 -0.0596,20.67967 l -0.0494,7.35048 -0.16176,0.039 c -0.33395,0.0805 -12.57315,2.1232 -12.72146,2.1232 -0.14856,0 -0.15488,-0.0479 -0.15447,-1.17159 v -1.17157 l 0.58515,-0.65302 c 1.72254,-1.92227 3.55032,-4.42812 5.26746,-7.22158 0.61644,-1.00281 2.23203,-3.78114 2.34538,-4.03333 0.019,-0.0423 -0.20177,0.18234 -0.49057,0.49908 -1.40417,1.54006 -2.9354,3.13242 -5.74053,5.96973 -2.54625,2.57547 -3.20866,3.20259 -3.91808,3.70929 -3.15276,2.2519 -6.2339,3.43738 -10.41852,4.00852 -0.79744,0.10884 -1.68155,0.15989 -3.11143,0.17962 -1.0986,0.0151 -2.0666,0.0151 -2.15112,-4e-5 z m 5.72019,-13.22232 c 3.9903,-0.61583 7.62741,-2.78309 9.09672,-5.42048 0.67437,-1.2105 0.95188,-2.43609 0.86299,-3.81119 -0.0593,-0.91651 -0.188,-1.58586 -0.45429,-2.36192 -1.09707,-3.19724 -4.39718,-5.46276 -8.96434,-6.15399 -1.21369,-0.18371 -3.52039,-0.18516 -4.57111,-0.003 -4.03822,0.70052 -7.37295,2.99848 -8.64742,5.95896 -0.67899,1.5772 -0.71531,3.29454 -0.10614,5.01772 1.11242,3.14667 4.55384,5.84112 8.56218,6.70372 1.28785,0.27716 2.72503,0.30101 4.22141,0.0701 z m 93.84544,13.17566 c -7.60752,-0.41206 -14.32437,-2.79036 -19.47523,-6.89574 -0.99533,-0.79331 -3.0538,-2.86153 -3.87151,-3.88983 -2.48484,-3.12482 -4.20008,-6.72605 -5.19181,-10.90049 -1.72177,-7.24739 -1.05205,-16.33138 1.68549,-22.86128 3.34497,-7.97884 9.96275,-13.0482 19.401,-14.86157 2.82062,-0.54194 5.07013,-0.73517 8.56602,-0.73587 3.17182,0 5.32131,0.18146 7.79457,0.66029 5.30098,1.0263 10.41936,3.34546 14.28864,6.4743 0.7248,0.58608 2.1936,1.92958 2.1936,2.00645 0,0.0468 -8.77951,10.25533 -9.14675,10.63559 -0.14168,0.14668 -0.1501,0.14315 -0.58817,-0.24715 -2.15454,-1.91957 -4.28271,-3.16703 -6.97841,-4.09053 -3.24995,-1.11337 -6.83458,-1.25372 -10.57931,-0.41421 -4.63602,1.03932 -8.2776,3.37036 -10.39922,6.65673 -2.37518,3.67914 -2.9243,9.05914 -1.40175,13.73394 0.49502,1.51989 1.28123,3.12642 2.12423,4.34063 4.68215,6.74385 13.3705,9.15137 21.02811,5.82686 2.35979,-1.0245 4.70712,-2.75268 6.33308,-4.66263 l 0.49129,-0.5771 3.00273,2.93738 c 3.28268,3.21123 4.62953,4.50724 5.71271,5.4972 0.38982,0.35627 0.70875,0.6739 0.70875,0.70586 0,0.13414 -1.73902,2.09409 -2.58247,2.91055 -5.76566,5.58109 -13.74917,8.25795 -23.11559,7.75062 z m -60.20713,-27.66794 c 0.0132,-15.22198 0.0477,-28.43606 0.0768,-29.36463 l 0.0529,-1.68833 6.79904,-1.1709 c 3.73947,-0.64401 6.84226,-1.17204 6.89508,-1.17343 0.0757,-0.002 0.096,0.91115 0.096,4.31651 v 4.31901 l 0.46739,-0.45854 c 0.25707,-0.25221 0.74852,-0.78698 1.0921,-1.18839 2.26133,-2.64188 3.56278,-3.6492 6.04621,-4.6797 3.31738,-1.37658 7.4225,-2.01677 14.12806,-2.20331 1.73255,-0.0482 1.79611,-0.0448 1.75651,0.0938 -0.0684,0.23924 -2.82255,6.6818 -3.82199,8.94031 -0.51419,1.16198 -1.2632,2.773 -1.66446,3.58003 l -0.72955,1.46733 -1.05063,0.0489 c -0.57786,0.0269 -1.41467,0.0985 -1.85958,0.15919 -5.80513,0.79113 -11.0298,4.21113 -12.62749,8.26578 -0.46449,1.17881 -0.43205,-0.0635 -0.48367,18.51659 l -0.0473,17.01849 -7.49788,1.4413 c -4.12384,0.79274 -7.53246,1.44019 -7.57471,1.4388 -0.0511,-0.002 -0.0688,-9.26436 -0.0529,-27.67884 z"
           id="path5"
           sodipodi:nodetypes="csssssssssssscccssssssssssssscssccssssssssscsssssssssssssscssccssssssssccssssscssssssssssscsssssssssssscssssssscssscssssssscsssscsss" /></g><path
         style="fill:#ebcb8b;stroke-width:0.242048"
         d="m 708.86957,-766.30221 c 0.10791,-0.20859 4.1507,-7.51164 8.98408,-16.22901 41.99714,-75.74526 66.99588,-122.68203 84.99838,-159.59003 l 2.23222,-4.57644 1.76609,1.41468 c 7.18566,5.7559 16.23765,11.21378 26.61248,16.04594 3.56539,1.66059 9.24749,4.11123 9.01368,3.88751 -0.0958,-0.0916 -1.38358,-1.03973 -2.86181,-2.10692 -6.64934,-4.80029 -13.1633,-10.15431 -19.11261,-15.70918 -2.18125,-2.03663 -8.20436,-8.03884 -10.67308,-10.63601 l -0.9189,-0.96675 2.22308,-4.82679 c 7.57496,-16.44658 11.58225,-25.961 27.05049,-64.22529 1.4674,-3.6298 2.69874,-6.5985 2.73635,-6.597 0.0376,0 1.59576,3.6165 3.46252,8.0333 8.65386,20.4749 14.16436,33.30954 18.14153,42.25406 14.92164,33.55819 35.34442,73.93567 72.54693,143.43119 3.20841,5.99336 5.97202,11.17047 6.14135,11.50467 l 0.30791,0.6076 -0.27445,-0.14398 c -0.15098,-0.0791 -1.00015,-0.55944 -1.88708,-1.06716 -6.74621,-3.86182 -15.8485,-7.62796 -25.74234,-10.65108 -2.5375,-0.77535 -8.18259,-2.36078 -8.18259,-2.29809 0,0.0205 0.57786,0.34293 1.28413,0.71649 12.97324,6.8615 21.89232,12.80076 34.59581,23.03744 1.96224,1.58119 4.91206,3.95272 6.55517,5.27007 l 2.9875,2.3952 11.15476,20.64857 c 6.13519,11.35673 11.14034,20.66307 11.12261,20.6808 -0.0171,0.0177 -1.53668,-0.82929 -3.37548,-1.88227 -41.16462,-23.57257 -70.98971,-36.47953 -97.10771,-42.02386 -1.573,-0.33391 -2.87094,-0.61918 -2.88429,-0.63393 -0.014,-0.0155 0.10589,-0.69871 0.2651,-1.51997 0.38443,-1.98329 0.81583,-4.97055 1.07823,-7.46588 0.31026,-2.95065 0.31257,-11.89939 0.003,-14.81228 -0.78263,-7.38319 -2.21178,-13.412 -4.62986,-19.53073 -0.83735,-2.11879 -2.92189,-6.24831 -4.1003,-8.12285 -4.83937,-7.69802 -10.7519,-12.36875 -17.57232,-13.88155 -1.03231,-0.22896 -1.54329,-0.26461 -3.76279,-0.26256 -2.826,0.003 -3.68288,0.12937 -5.9727,0.88348 -7.16845,2.36082 -13.7854,9.29688 -18.02654,18.89592 -3.95001,8.94006 -5.82329,19.04581 -5.5872,30.14117 0.10604,4.98058 0.58662,9.20196 1.58963,13.96231 0.16452,0.78081 0.25531,1.45712 0.20171,1.50291 -0.0535,0.0457 -1.36063,0.33942 -2.90454,0.65251 -14.33573,2.90699 -30.45456,8.35468 -48.2594,16.31017 -10.07019,4.49955 -23.04853,10.99995 -35.05972,17.56024 -5.04324,2.75452 -14.55237,8.09067 -18.25646,10.2448 -0.0547,0.0319 -0.0109,-0.11273 0.0967,-0.32139 z m 265.72813,-26.82281 v -3.64336 h -1.37374 -1.37373 v -0.47781 -0.47783 h 3.28499 3.28499 v 0.47783 0.47781 h -1.37374 -1.37373 v 3.64336 3.64332 h -0.53752 -0.53752 z m 4.89755,-0.47783 v -4.12117 h 0.82626 0.82626 l 1.15465,3.46417 c 0.63501,1.90529 1.17005,3.46417 1.18886,3.46417 0.0187,0 0.56535,-1.55885 1.21452,-3.46414 l 1.1803,-3.46412 0.7465,-2e-5 0.74665,-6e-5 v 4.12117 4.12115 h -0.53565 -0.53581 l -0.0311,-3.37456 -0.0311,-3.37458 -0.70234,2.03072 c -0.38623,1.11689 -0.91691,2.63822 -1.17922,3.38073 l -0.47703,1.34999 -0.47813,-0.0361 -0.47828,-0.0361 -1.14967,-3.37368 -1.14968,-3.3737 -0.0311,3.40357 -0.0311,3.40355 h -0.53566 -0.53565 z"
         id="path6"
         sodipodi:nodetypes="scscsssssscsscsssscssssssscsscsssscssssssssssssssscccccccccccccccccccccssscccccccccsscccccccccc" /></g></g></svg>
