<?xml version="1.0" encoding="UTF-8" standalone="no"?>
<!-- Created with Inkscape (http://www.inkscape.org/) -->

<svg
   width="1920"
   height="1080"
   viewBox="0 0 1920 1080"
   version="1.1"
   id="svg1"
   xml:space="preserve"
   inkscape:version="1.4.2 (ebf0e940d0, 2025-05-08)"
   sodipodi:docname="nord-arch-center.svg"
   inkscape:export-filename="../wallpapers/nord-arch-center-aurora-frostteal.png"
   inkscape:export-xdpi="96"
   inkscape:export-ydpi="96"
   xmlns:inkscape="http://www.inkscape.org/namespaces/inkscape"
   xmlns:sodipodi="http://sodipodi.sourceforge.net/DTD/sodipodi-0.dtd"
   xmlns="http://www.w3.org/2000/svg"
   xmlns:svg="http://www.w3.org/2000/svg"><sodipodi:namedview
     id="namedview1"
     pagecolor="#505050"
     bordercolor="#eeeeee"
     borderopacity="1"
     inkscape:showpageshadow="0"
     inkscape:pageopacity="0"
     inkscape:pagecheckerboard="0"
     inkscape:deskcolor="#505050"
     inkscape:document-units="px"
     inkscape:zoom="0.47214109"
     inkscape:cx="795.3131"
     inkscape:cy="632.22626"
     inkscape:window-width="1898"
     inkscape:window-height="1022"
     inkscape:window-x="10"
     inkscape:window-y="46"
     inkscape:window-maximized="1"
     inkscape:current-layer="layer1" /><defs
     id="defs1" /><g
     inkscape:label="Layer 1"
     inkscape:groupmode="layer"
     id="layer1"><rect
       style="fill:#2e3440;stroke:#434c5e;stroke-width:2"
       id="rect1"
       width="1920"
       height="1080"
       x="0"
       y="0" /><path
       style="fill:#8fbcbb;stroke-width:0.48485"
       d="m 681.17622,804.19988 c 0.21615,-0.41784 8.31431,-15.04666 17.99611,-32.50852 C 783.2973,619.96514 833.37256,525.94555 869.43358,452.0147 l 4.47139,-9.16712 3.53767,2.83376 c 14.39369,11.52972 32.52583,22.46246 53.30777,32.14181 7.14187,3.32634 18.52375,8.23526 18.05541,7.78712 -0.1919,-0.18348 -2.77147,-2.08269 -5.73253,-4.22039 -13.31937,-9.61552 -26.36756,-20.34023 -38.28469,-31.46725 -4.36929,-4.07959 -16.43425,-16.1027 -21.37937,-21.30511 l -1.84066,-1.93651 4.45308,-9.6686 c 15.17349,-32.94434 23.20053,-52.00279 54.18515,-128.65043 2.93937,-7.2709 5.40588,-13.21753 5.48122,-13.21453 0.0753,0 3.19649,7.24426 6.93581,16.0916 17.33465,41.01351 28.37279,66.72273 36.33951,84.6396 29.88966,67.2208 70.79886,148.10141 145.31946,287.30869 6.4269,12.00537 11.9627,22.3757 12.3019,23.04514 l 0.6168,1.2171 -0.5498,-0.28842 c -0.3025,-0.15845 -2.0034,-1.12062 -3.78,-2.13764 -13.5134,-7.73565 -31.7464,-15.27965 -51.5648,-21.3353 -5.0829,-1.55311 -16.3907,-4.7289 -16.3907,-4.60333 0,0.0411 1.1575,0.68692 2.5723,1.4352 25.9869,13.74437 43.8528,25.64136 69.2993,46.14657 3.9306,3.16731 9.8394,7.91774 13.1308,10.55654 l 5.9842,4.79786 22.3442,41.36138 c 12.2895,22.74881 22.3154,41.39045 22.2799,41.42596 -0.034,0.0354 -3.0782,-1.66116 -6.7615,-3.7704 -82.4573,-47.21848 -142.2003,-73.07257 -194.5175,-84.17848 -3.151,-0.66886 -5.7509,-1.24029 -5.7776,-1.26984 -0.028,-0.0311 0.2121,-1.39959 0.531,-3.04466 0.7701,-3.97276 1.6342,-9.95657 2.1598,-14.955 0.6215,-5.91048 0.6261,-23.8358 0.01,-29.67065 -1.5677,-14.78935 -4.4305,-26.86574 -9.27411,-39.12223 -1.6773,-4.24417 -5.85287,-12.51606 -8.21335,-16.27097 -9.6938,-15.42 -21.53726,-24.77599 -35.19933,-27.8063 -2.06783,-0.45864 -3.09137,-0.53005 -7.53728,-0.52593 -5.66079,0.006 -7.37722,0.25914 -11.96399,1.76971 -14.3592,4.72898 -27.61369,18.62268 -36.10917,37.85062 -7.91231,17.90794 -11.66471,38.15089 -11.19178,60.37614 0.2124,9.97666 1.17506,18.43255 3.1842,27.96807 0.32956,1.56405 0.51141,2.91877 0.40405,3.0105 -0.10712,0.0916 -2.72549,0.67989 -5.81812,1.30704 -28.71607,5.82302 -61.00388,16.73536 -96.66897,32.6711 -20.17171,9.0131 -46.16878,22.03412 -70.22853,35.17512 -10.10218,5.5176 -29.15003,16.20651 -36.56973,20.52148 -0.10957,0.0639 -0.0218,-0.22582 0.19369,-0.64378 z M 1213.4593,750.4708 v -7.29806 h -2.7518 -2.7517 v -0.95711 -0.95715 h 6.5802 6.5802 v 0.95715 0.95711 h -2.7517 -2.7518 v 7.29806 7.29797 h -1.0767 -1.0767 z m 9.8103,-0.95715 v -8.25517 h 1.6551 1.6551 l 2.3129,6.93912 c 1.2719,3.81651 2.3437,6.93912 2.3815,6.93912 0.037,0 1.1324,-3.12255 2.4327,-6.93906 l 2.3643,-6.93902 1.4953,-4e-5 1.4957,-1.2e-4 v 8.25517 8.25512 h -1.0731 -1.0732 l -0.062,-6.75962 -0.062,-6.75966 -1.4069,4.06775 c -0.7737,2.23727 -1.8367,5.28465 -2.3621,6.77199 l -0.9556,2.70418 -0.9576,-0.0723 -0.9581,-0.0723 -2.3029,-6.75786 -2.303,-6.75789 -0.062,6.81773 -0.062,6.81769 h -1.073 -1.073 z"
       id="path6"
       sodipodi:nodetypes="scscsssssscsscsssscssssssscsscsssscssssssssssssssscccccccccccccccccccccssscccccccccsscccccccccc" /></g></svg>
