<?xml version="1.0" encoding="UTF-8" standalone="no"?>
<!-- Created with Inkscape (http://www.inkscape.org/) -->

<svg
   width="1920"
   height="1080"
   viewBox="0 0 1920 1080"
   version="1.1"
   id="svg1"
   xml:space="preserve"
   inkscape:version="1.4.2 (ebf0e940d0, 2025-05-08)"
   sodipodi:docname="nord-i3.svg"
   inkscape:export-filename="../../.wallpaper/nord-themed/nord-i3.png"
   inkscape:export-xdpi="96"
   inkscape:export-ydpi="96"
   xmlns:inkscape="http://www.inkscape.org/namespaces/inkscape"
   xmlns:sodipodi="http://sodipodi.sourceforge.net/DTD/sodipodi-0.dtd"
   xmlns="http://www.w3.org/2000/svg"
   xmlns:svg="http://www.w3.org/2000/svg"><sodipodi:namedview
     id="namedview1"
     pagecolor="#505050"
     bordercolor="#eeeeee"
     borderopacity="1"
     inkscape:showpageshadow="0"
     inkscape:pageopacity="0"
     inkscape:pagecheckerboard="0"
     inkscape:deskcolor="#505050"
     inkscape:document-units="px"
     inkscape:zoom="0.33385417"
     inkscape:cx="661.96568"
     inkscape:cy="633.51014"
     inkscape:window-width="1898"
     inkscape:window-height="1022"
     inkscape:window-x="10"
     inkscape:window-y="46"
     inkscape:window-maximized="1"
     inkscape:current-layer="layer1" /><defs
     id="defs1" /><g
     inkscape:label="Layer 1"
     inkscape:groupmode="layer"
     id="layer1"><rect
       style="fill:#2e3440"
       id="rect1"
       width="1920"
       height="1080"
       x="0"
       y="0" /><path
       style="fill:#81a1c1"
       d="m 1451.6176,645.22178 c -12.9626,-1.79638 -30.2325,-8.81955 -39.573,-16.09325 -1.3995,-1.08986 -28.7496,-28.09934 -60.778,-60.02105 -61.3871,-61.18277 -60.2554,-59.89023 -60.2554,-68.81944 0,-8.6762 5.2047,-17.02886 13.1308,-21.07242 5.1648,-2.63491 14.857,-2.56451 20.8446,0.15141 3.3876,1.5366 18.4514,15.94154 61.5,58.81031 65.3484,65.0754 60.8869,61.55574 78.0134,61.54422 19.537,-0.0131 41.3473,-8.99524 65.4556,-26.95656 43.0363,-32.06312 73.2822,-82.38119 68.8778,-114.58718 -1.6384,-11.9802 -1.6845,-12.03401 -62.83,-73.38978 -31.2426,-31.35 -57.5115,-58.41526 -58.3754,-60.14503 -2.5899,-5.18551 -2.9944,-10.58268 -1.2445,-16.60233 4.3337,-14.90728 22.6502,-21.2481 35.5387,-12.30282 1.9678,1.36575 29.0536,28.03576 60.1907,59.26668 60.4006,60.58257 61.4077,61.74113 67.2887,77.40779 4.6147,12.29338 5.9123,21.65195 5.3122,38.31151 -0.6094,16.91601 -2.6993,26.31549 -9.7711,43.94582 -20.7513,51.73374 -76.1481,105.45842 -127.4427,123.59571 -18.4985,6.54091 -39.7716,9.18905 -55.8824,6.95641 z m 67.3212,-96.29871 c -2.5087,-0.67649 -5.8837,-2.18929 -7.5,-3.36178 -1.6163,-1.17248 -30.6529,-29.95112 -64.5257,-63.95252 -53.0194,-53.22071 -61.7487,-62.39332 -62.75,-65.93675 -2.6244,-9.28746 -0.7129,-16.88098 5.9285,-23.55089 7.0011,-7.03114 16.8462,-8.84169 25.9084,-4.76466 5.9171,2.66202 126.9799,123.23456 130.0239,129.49729 2.6946,5.54399 2.6445,14.42218 -0.1137,20.11976 -2.6679,5.51121 -8.0699,9.97209 -14.3417,11.84324 -5.781,1.72474 -6.6024,1.73165 -12.6297,0.10631 z M 1252.5,467.89919 c -17.1817,-7.50589 -18.8473,-31.87687 -2.8206,-41.26917 13.2699,-7.77666 30.4355,-0.77024 34.4266,14.05179 2.8343,10.52558 -3.2288,22.83623 -13.3239,27.05318 -4.495,1.87769 -14.161,1.96451 -18.2821,0.1642 z m 92.1838,-90.99904 c -9.121,-3.39858 -14.8635,-11.85072 -14.8159,-21.80696 0.066,-13.71257 9.2955,-22.80515 23.1497,-22.80515 22.9586,0 31.3814,30.20311 11.799,42.30995 -5.6288,3.48007 -14.308,4.47252 -20.1328,2.30216 z m 93.445,-94.31479 c -12.1952,-4.30981 -18.374,-19.97318 -12.486,-31.6523 4.1725,-8.27648 11.7356,-12.98496 20.8572,-12.98496 13.0805,0 22.841,9.75588 22.8508,22.83993 0.01,10.40344 -6.2811,19.21393 -15.7142,22.01529 -6.163,1.83022 -9.8591,1.77827 -15.5078,-0.21796 z"
       id="path3"
       sodipodi:nodetypes="ssssssssssssssssssssssssssssssssssssssssssscss" /><path
       style="fill:#ebcb8b;stroke:#ebcb8b;stroke-width:1.0002;stroke-opacity:1"
       d="M 0.6948949,566.50004 V 540 H 640.71195 1280.7291 l 16.5003,16.75003 c 9.0752,9.21251 20.766,21.13753 25.9796,26.50004 l 9.4794,9.75002 H 666.69164 0.6948949 Z"
       id="path4"
       sodipodi:nodetypes="ccccsscccc" /><path
       style="fill:#a3be8c;stroke:#a3be8c;stroke-width:1.06586;stroke-opacity:1"
       d="M 0.72771852,619.50013 V 592.99957 H 666.73561 1332.7435 l 17.599,15.75033 c 9.6794,8.66269 22.9557,20.58793 29.503,26.50055 l 11.904,10.75024 H 696.23868 0.72771852 Z"
       id="path6"
       sodipodi:nodetypes="ccccsscccc" /><path
       style="fill:#d08770;stroke:#d08770;stroke-width:0.980499;stroke-opacity:1"
       d="M 0.68504631,513.49996 V 486.99991 H 615.73591 1230.7868 l 15.8566,16.75003 c 8.7212,9.21252 19.956,21.13754 24.9662,26.50004 L 1280.7192,540 H 640.7021 0.68504631 Z"
       id="path7"
       sodipodi:nodetypes="ccccsscccc" /><path
       style="fill:#bf616a;stroke:#bf616a;stroke-width:0.961185;stroke-opacity:1"
       d="M 0.67539163,460.49987 V 433.99983 H 591.73396 1182.7925 l 15.2381,16.75003 c 8.381,9.21251 19.1775,21.13753 23.9923,26.50004 l 8.7543,9.75001 H 615.72626 0.67539163 Z"
       id="path8"
       sodipodi:nodetypes="ccccsscccc" /></g></svg>
