<?xml version="1.0" encoding="UTF-8" standalone="no"?>
<!-- Created with Inkscape (http://www.inkscape.org/) -->

<svg
   width="1920"
   height="1080"
   viewBox="0 0 1920 1080"
   version="1.1"
   id="svg1"
   xml:space="preserve"
   inkscape:version="1.4.2 (ebf0e940d0, 2025-05-08)"
   sodipodi:docname="nord-arch-02.svg"
   inkscape:export-filename="../../.wallpaper/nord-themed/nord-arch-11.png"
   inkscape:export-xdpi="96"
   inkscape:export-ydpi="96"
   xmlns:inkscape="http://www.inkscape.org/namespaces/inkscape"
   xmlns:sodipodi="http://sodipodi.sourceforge.net/DTD/sodipodi-0.dtd"
   xmlns="http://www.w3.org/2000/svg"
   xmlns:svg="http://www.w3.org/2000/svg"><sodipodi:namedview
     id="namedview1"
     pagecolor="#505050"
     bordercolor="#eeeeee"
     borderopacity="1"
     inkscape:showpageshadow="0"
     inkscape:pageopacity="0"
     inkscape:pagecheckerboard="0"
     inkscape:deskcolor="#505050"
     inkscape:document-units="px"
     inkscape:zoom="0.45593656"
     inkscape:cx="676.62923"
     inkscape:cy="253.32472"
     inkscape:window-width="1898"
     inkscape:window-height="1022"
     inkscape:window-x="10"
     inkscape:window-y="46"
     inkscape:window-maximized="1"
     inkscape:current-layer="layer1" /><defs
     id="defs1" /><g
     inkscape:label="Layer 1"
     inkscape:groupmode="layer"
     id="layer1"><rect
       style="fill:#2e3440"
       id="rect1"
       width="1920"
       height="1080"
       x="0"
       y="0" /><path
       style="fill:#d08770;stroke:#d08770;stroke-width:0.690773;stroke-opacity:1"
       d="m 0.66977635,520.74554 v 19.30009 H 419.8252 873.41727 l 6.39012,-12.19911 c 4.15918,-7.94 13.50211,-26.40108 13.50211,-26.40108 H 436.83963 0.66977635 Z"
       id="path4"
       sodipodi:nodetypes="ccccscccc" /><path
       style="fill:#bf616a;stroke:#bf616a;stroke-width:0.736799;stroke-opacity:1"
       d="m -0.14978207,482.14535 v 19.30009 H 436.83963 893.3095 l 5.80236,-11.47081 c 4.04066,-7.98812 7.02786,-13.81918 9.6654,-19.30009 l 3.76758,-7.82928 H 456.19756 -0.14978207 Z"
       id="path6"
       sodipodi:nodetypes="ccccsscccc" /><path
       style="fill:#ebcb8b;stroke:#ebcb8b;stroke-width:0.677166;stroke-opacity:1"
       d="m 0.66977635,559.34573 v 19.30009 H 403.47452 852.8415 l 6.54526,-12.19912 c 4.16587,-7.76438 7.89368,-14.79031 10.27734,-19.30009 l 3.75317,-7.10098 H 419.8252 0.66977635 Z"
       id="path7"
       sodipodi:nodetypes="ccccsscccc" /><path
       style="fill:#a3be8c;stroke:#a3be8c;stroke-width:0.663827;stroke-opacity:1"
       d="m 0.66977635,597.94591 v 19.3001 H 387.76165 831.93119 c 7.00743,-12.84649 13.9648,-25.72014 20.91031,-38.60019 H 403.47452 0.66977635 Z"
       id="path8"
       sodipodi:nodetypes="cccccccc" /><path
       style="fill:#81a1c1;stroke-width:0.571006"
       d="m 813.53696,686.43861 c 0,-0.14383 4.59187,-8.53084 10.20418,-18.63783 27.41756,-49.3756 51.11677,-93.01105 68.2839,-125.72555 7.34132,-13.98988 27.26037,-53.44025 27.79962,-55.05815 0.16353,-0.49066 1.89037,0.49284 5.06346,2.88382 6.371,4.80068 15.26711,10.12806 23.69185,14.18761 7.71873,3.71937 12.27663,5.75131 12.27663,5.47293 0,-0.10326 -2.32103,-1.90926 -5.15783,-4.01348 -10.65618,-7.90409 -29.7523,-25.26046 -30.54685,-27.76388 -0.2409,-0.75904 1.52162,-5.31047 5.35597,-13.83062 6.13867,-13.64054 11.93941,-27.45558 22.64195,-53.92413 3.71451,-9.18646 6.8092,-16.63809 6.87709,-16.55918 0.0679,0.0789 4.04718,9.39373 8.84295,20.69966 24.81662,58.50526 41.17782,91.98763 87.19442,178.43948 6.4359,12.09107 12.618,23.63339 13.738,25.64966 l 2.0365,3.66586 -4.2432,-2.32952 c -2.3339,-1.28123 -6.9414,-3.47521 -10.2389,-4.87548 -6.8501,-2.90888 -22.0707,-7.99666 -22.9981,-7.68758 -0.3408,0.11361 1.418,1.32017 3.9088,2.68121 10.9653,5.99192 19.9038,12.16632 34.6609,23.94277 l 9.0049,7.18616 12.265,22.71144 c 6.7458,12.49127 12.2651,22.82575 12.2651,22.96547 0,0.13978 -2.2484,-1.04596 -4.9965,-2.63478 -40.5668,-23.45592 -77.5643,-39.52564 -104.55059,-45.41146 l -4.76733,-1.03974 0.33254,-2.56953 c 1.07693,-8.32065 1.51205,-15.76394 1.18514,-20.27073 -1.69624,-23.38094 -10.6636,-41.17618 -24.07706,-47.77959 -3.55332,-1.74927 -4.28352,-1.89797 -9.32151,-1.89797 -5.16304,0 -5.70583,0.11846 -9.78745,2.13569 -10.2426,5.0622 -18.17238,17.76605 -21.55697,34.53525 -2.0908,10.35887 -2.08081,24.93626 0.0223,32.9067 0.31913,1.20945 0.46525,2.3139 0.32479,2.45442 -0.1406,0.14043 -3.04815,0.88466 -6.46133,1.65363 -20.69807,4.6633 -40.6049,12.29588 -68.73112,26.35269 -9.57864,4.78715 -22.61899,11.63843 -28.97859,15.22502 -6.35958,3.58661 -11.56287,6.4035 -11.56287,6.25973 z"
       id="path9"
       sodipodi:nodetypes="ssssssssssssssscssssscsscscsssssssssssss" /><path
       style="fill:#ebcb8b;stroke:#ebcb8b;stroke-width:0.690773;stroke-opacity:1"
       d="m 1918.831,520.74554 v 19.30009 h -419.1554 -453.5921 l -6.3901,-12.19911 c -4.1592,-7.94 -13.5021,-26.40108 -13.5021,-26.40108 h 456.4699 436.1698 z"
       id="path10"
       sodipodi:nodetypes="ccccscccc" /><path
       style="fill:#a3be8c;stroke:#a3be8c;stroke-width:0.736799;stroke-opacity:1"
       d="m 1919.6506,482.14535 v 19.30009 h -436.9894 -456.4699 l -5.8023,-11.47081 c -4.0407,-7.98812 -7.0279,-13.81918 -9.6654,-19.30009 l -3.7676,-7.82928 h 456.3473 456.3473 z"
       id="path11"
       sodipodi:nodetypes="ccccsscccc" /><path
       style="fill:#d08770;stroke:#d08770;stroke-width:0.677166;stroke-opacity:1"
       d="m 1918.831,559.34573 v 19.30009 h -402.8047 -449.367 l -6.5452,-12.19912 c -4.1659,-7.76438 -7.8937,-14.79031 -10.2774,-19.30009 l -3.7532,-7.10098 h 453.5921 419.1554 z"
       id="path12"
       sodipodi:nodetypes="ccccsscccc" /><path
       style="fill:#bf616a;stroke:#bf616a;stroke-width:0.663827;stroke-opacity:1"
       d="m 1918.831,597.94591 v 19.3001 h -387.0918 -444.1696 c -7.0074,-12.84649 -13.9648,-25.72014 -20.9103,-38.60019 h 449.367 402.8047 z"
       id="path13"
       sodipodi:nodetypes="cccccccc" /></g></svg>
