<?xml version="1.0" encoding="UTF-8" standalone="no"?>
<!-- Created with Inkscape (http://www.inkscape.org/) -->

<svg
   width="1920"
   height="1080"
   viewBox="0 0 1920 1080"
   version="1.1"
   id="svg1"
   xml:space="preserve"
   inkscape:version="1.4.2 (ebf0e940d0, 2025-05-08)"
   sodipodi:docname="arch-left-text.svg"
   inkscape:export-filename="../../.wallpaper/archlinux.png"
   inkscape:export-xdpi="96"
   inkscape:export-ydpi="96"
   xmlns:inkscape="http://www.inkscape.org/namespaces/inkscape"
   xmlns:sodipodi="http://sodipodi.sourceforge.net/DTD/sodipodi-0.dtd"
   xmlns="http://www.w3.org/2000/svg"
   xmlns:svg="http://www.w3.org/2000/svg"><sodipodi:namedview
     id="namedview1"
     pagecolor="#505050"
     bordercolor="#eeeeee"
     borderopacity="1"
     inkscape:showpageshadow="0"
     inkscape:pageopacity="0"
     inkscape:pagecheckerboard="0"
     inkscape:deskcolor="#505050"
     inkscape:document-units="px"
     inkscape:zoom="0.55989583"
     inkscape:cx="960"
     inkscape:cy="540.27907"
     inkscape:window-width="1898"
     inkscape:window-height="1022"
     inkscape:window-x="10"
     inkscape:window-y="46"
     inkscape:window-maximized="1"
     inkscape:current-layer="layer1" /><defs
     id="defs1" /><g
     inkscape:label="Layer 1"
     inkscape:groupmode="layer"
     id="layer1"><rect
       style="fill:#282828"
       id="rect1"
       width="1920"
       height="1080"
       x="0"
       y="0" /><path
       style="fill:#8ec07c;stroke-width:0.315433"
       d="m 1347.8162,621.40065 c -6.8448,-0.65761 -11.2721,-1.80289 -16.1899,-4.18804 -9.5531,-4.63337 -16.1353,-13.24804 -18.317,-23.97273 -0.303,-1.48999 -0.3218,-2.33402 -0.4383,-19.69229 -0.067,-9.97459 -0.1743,-29.03227 -0.2379,-42.35047 l -0.1155,-24.21483 6.9084,-1.40874 c 3.7997,-0.77479 6.9306,-1.39109 6.9577,-1.36953 0.026,0.0215 0.1074,18.62736 0.1783,41.34628 l 0.1297,41.30709 0.3951,1.7124 c 2.2389,9.70526 8.6178,16.51603 17.6302,18.82348 3.1898,0.81672 4.3376,0.93566 9.0157,0.93416 4.6552,0 6.3077,-0.15278 10.1965,-0.93381 3.8907,-0.78134 6.8878,-1.79823 10.5078,-3.56512 9.3495,-4.56357 15.8652,-12.53069 18.2718,-22.34173 1.1076,-4.51546 1.0312,-1.60277 1.0312,-39.37196 v -34.00134 l 6.3593,-1.61856 c 3.4976,-0.89019 6.3986,-1.57909 6.4469,-1.53088 0.083,0.0831 0.448,70.50136 0.511,98.62689 l 0.028,13.15311 -6.2064,1.27782 c -3.4134,0.7028 -6.3639,1.2812 -6.5564,1.28534 l -0.3504,0.008 v -11.63635 c 0,-10.89038 -0.026,-11.60144 -0.2644,-11.09153 -2.5507,5.46392 -3.8976,7.60903 -7.1374,11.36828 -5.3296,6.18385 -13.4698,10.74837 -22.3214,12.51639 -3.841,0.76728 -5.2424,0.89094 -10.6634,0.94133 -2.8254,0.0261 -5.4172,0.0209 -5.7597,-0.0122 z m 154.5453,-1.64608 c -0.3341,-0.45599 -8.4409,-11.7221 -18.0153,-25.03582 -9.5743,-13.31372 -17.5311,-24.33789 -17.6818,-24.49815 -0.2645,-0.28112 -0.8983,0.58323 -17.9023,24.40703 -9.6954,13.58416 -17.7029,24.67352 -17.7941,24.64308 -0.4156,-0.13859 -9.5835,-7.05665 -9.5345,-7.1947 0.03,-0.0857 8.4699,-12.08218 18.7543,-26.659 10.2845,-14.57685 18.699,-26.5411 18.699,-26.58727 0,-0.0462 -7.9242,-10.45412 -17.6096,-23.12874 -9.6855,-12.67461 -17.5487,-23.09867 -17.4739,-23.16459 0.5977,-0.52779 8.8324,-6.89001 8.9774,-6.93637 0.1034,-0.0328 7.6126,9.42678 16.6882,21.02142 9.0755,11.59463 16.5361,21.07967 16.5789,21.07791 0.043,-0.004 6.3824,-9.00986 14.0881,-20.01794 7.7058,-11.00808 14.0848,-20.11976 14.1758,-20.24813 0.1357,-0.1925 0.9983,0.47144 4.9036,3.77652 2.606,2.20551 4.7383,4.06763 4.7383,4.13805 0,0.0703 -6.8651,9.76975 -15.2558,21.55415 -8.3906,11.78435 -15.3826,21.62397 -15.5376,21.86583 l -0.2818,0.43971 19.1837,26.58988 c 10.5511,14.62444 19.3525,26.81398 19.5585,27.08785 l 0.3747,0.49796 -4.2544,3.37697 c -2.34,1.85734 -4.3709,3.47742 -4.5132,3.60019 -0.2322,0.2002 -0.3213,0.13779 -0.8662,-0.60584 z m -221.2502,-41.8798 c 0,-44.89658 0.073,-41.51266 -0.9543,-44.46431 -2.3048,-6.62338 -7.4866,-12.48529 -13.7825,-15.59115 -4.6061,-2.27226 -9.682,-3.24889 -15.9302,-3.06506 -7.3007,0.2148 -13.3792,1.72771 -19.7278,4.91018 -9.6739,4.84938 -17.2648,13.27593 -18.811,20.88181 -0.2516,1.23758 -0.2634,3.66183 -0.185,37.78206 l 0.084,36.45961 -0.8005,0.22695 c -2.3383,0.66304 -12.4141,3.2449 -12.4607,3.19298 -0.03,-0.0334 -0.1327,-18.97464 -0.2285,-42.09171 -0.096,-23.11702 -0.2185,-48.26557 -0.273,-55.88565 l -0.099,-13.85464 6.3638,-1.28608 c 3.5002,-0.70736 6.4515,-1.28528 6.5585,-1.28429 0.1501,0 0.1945,0.83309 0.1945,3.63448 0,1.99796 0.047,7.22176 0.1033,11.60845 l 0.1036,7.97586 0.3461,-0.8507 c 0.9896,-2.43237 2.8603,-5.73577 4.5557,-8.04461 4.1558,-5.65945 9.3389,-9.81774 15.7805,-12.66024 4.5653,-2.01457 9.4127,-3.19325 15.2079,-3.69796 2.7592,-0.24029 10.5179,-0.0997 12.9391,0.23441 10.6406,1.46851 18.6463,5.55572 24.4159,12.46555 3.8435,4.60312 6.6165,10.77423 7.4971,16.68449 0.1196,0.80646 0.5453,58.30174 0.618,83.58163 v 1.41545 l -1.9847,0.42104 c -1.0918,0.23156 -3.6836,0.79175 -5.7599,1.24483 l -3.775,0.82381 z m -115.8254,28.71386 c 0,-6.05755 -0.1021,-30.59312 -0.2188,-54.52354 -0.1167,-23.93044 -0.1664,-43.55755 -0.11,-43.61583 0.1205,-0.12522 11.277,-5.12013 11.318,-5.06726 0.053,0.0681 0.2063,112.04091 0.1536,112.04091 -0.029,0 -2.4132,0.49036 -5.2984,1.0897 -2.8851,0.59932 -5.3788,1.0897 -5.5416,1.0897 -0.288,0 -0.2962,-0.29677 -0.3027,-11.01368 z m -35.698,-1.50549 c -0.1631,-20.96365 -0.4126,-143.21226 -0.2925,-143.31781 0.1736,-0.15258 12.8316,-3.2808 12.9195,-3.19286 0.072,0.0721 0.6418,128.12781 0.655,147.23483 l 0.01,8.98702 -0.3503,0.0851 c -0.1927,0.0468 -3.1615,0.56153 -6.5974,1.14388 l -6.2471,1.05882 z m 399.6254,-0.0513 -0.04,-4.78685 -1.8292,-0.0438 -1.8291,-0.0438 v -0.61775 -0.61772 h 4.3587 4.3588 v 0.62268 0.6227 h -1.7902 -1.7903 v 4.82577 4.8258 h -0.6982 -0.6983 z m 6.5747,-0.66159 v -5.44845 h 1.0778 1.0778 l 1.5276,4.59228 c 1.3408,4.02985 1.7653,5.09065 1.7653,4.41051 0,-0.0999 0.683,-2.16633 1.5179,-4.59192 l 1.5177,-4.41014 0.973,-3e-4 h 0.9728 v 5.44843 5.44849 h -0.6981 -0.698 l -0.04,-4.44917 -0.041,-4.44912 -1.5403,4.44912 -1.5402,4.44917 h -0.6598 -0.6597 l -1.5662,-4.55338 -1.5661,-4.55334 v 4.55334 4.55338 h -0.7005 -0.7007 z M 1168.6179,475.36548 c -3.09,-3.46487 -6.3608,-7.24911 -6.3608,-7.35922 0,-0.13697 8.9596,-7.47536 9.1269,-7.47536 0.1214,0 7.5035,8.17905 7.577,8.39514 0.026,0.0764 -1.9004,1.76595 -4.2809,3.75465 -2.3805,1.98872 -4.443,3.71508 -4.5833,3.8364 -0.2279,0.19695 -0.3861,0.0738 -1.4789,-1.15161 z"
       id="path3"
       sodipodi:nodetypes="ssssscssscssssssscssscsscscsssssssssssssssssssssssscsscsssssssssscsssscscsscsssssssscsscssssssssssssscsscscccccccccccccccccccccsssccccccccccccccccccccsssssss" /><path
       style="fill:#fb4934;stroke-width:0.315433"
       d="m 1076.2509,618.96677 c 0,-1.22007 -0.1076,-20.25661 -0.2411,-42.30342 -0.2674,-44.16012 -0.167,-40.68123 -1.2355,-42.80006 -1.9398,-3.84658 -5.9229,-7.06622 -10.8231,-8.74854 -2.8745,-0.98691 -5.1791,-1.35936 -9.1846,-1.48436 -7.2008,-0.22478 -13.5127,1.25166 -19.0577,4.45782 -5.3877,3.11521 -9.3493,7.72869 -10.5388,12.27307 -0.3079,1.17618 -0.3168,1.8841 -0.48,38.17009 -0.091,20.33449 -0.1812,36.9903 -0.1992,37.01302 -0.083,0.10415 -28.47292,5.16465 -28.54874,5.0888 -0.091,-0.091 -0.33823,-154.84608 -0.24755,-154.93992 0.0294,-0.0302 6.41479,-1.5512 14.19009,-3.38003 7.7754,-1.82881 14.2946,-3.36405 14.4873,-3.41168 l 0.3503,-0.0867 v 21.63141 21.6314 l -1.0509,0.88366 c -4.8253,4.05779 -10.4356,9.96773 -15.8048,16.64875 -1.0321,1.28428 -1.9875,2.47031 -2.1231,2.63563 -0.2346,0.28601 -0.2313,0.2898 0.068,0.0778 0.173,-0.12259 1.3289,-1.0332 2.5686,-2.02375 2.7484,-2.1962 5.3725,-4.16782 10.6143,-7.97508 2.2009,-1.59858 5.2132,-3.8045 6.6939,-4.90202 2.9134,-2.15951 3.761,-2.67922 5.918,-3.62839 4.3251,-1.90336 9.8968,-3.19643 16.3481,-3.79419 3.0589,-0.28344 9.7714,-0.32451 12.7808,-0.0782 13.589,1.11202 26.0428,5.86173 35.1283,13.3973 4.4091,3.65696 7.5929,7.90251 8.4702,11.29484 0.2232,0.86334 0.2473,5.36942 0.2473,46.27006 v 45.31353 l -0.3502,0.0788 c -0.491,0.11023 -27.7353,4.90864 -27.8709,4.90864 -0.061,0 -0.1101,-0.99825 -0.1093,-2.21832 z m -343.64405,0.58349 c -0.17122,-0.031 -1.0819,-0.13495 -2.02372,-0.23128 -0.94178,-0.0965 -2.97743,-0.41567 -4.52365,-0.7095 -13.15716,-2.5001 -23.84521,-9.3857 -30.19372,-19.45176 -1.09866,-1.74202 -2.97794,-5.57742 -3.71389,-7.57964 -2.54856,-6.93376 -3.6318,-15.32939 -3.04906,-23.63227 1.00134,-14.26713 7.92397,-24.647 20.69835,-31.03538 6.43284,-3.21704 12.94734,-5.02125 21.73891,-6.02068 3.57792,-0.40673 10.23874,-0.56894 13.17872,-0.3209 7.90101,0.66653 14.3128,3.20057 18.45046,7.29189 l 1.31687,1.30215 -0.0845,-2.45985 c -0.0918,-2.67077 -0.38177,-4.38234 -1.0099,-5.96005 -1.65669,-4.16119 -5.53434,-6.59578 -12.49357,-7.84409 -2.92139,-0.52404 -4.63705,-0.6423 -9.26242,-0.63849 -3.98638,0.004 -5.05754,0.0563 -7.3165,0.36176 -7.51993,1.01689 -17.21178,2.95879 -28.02067,5.6143 -1.71236,0.4207 -3.12558,0.75293 -3.14045,0.7383 -0.0667,-0.0655 5.41368,-29.47149 5.53102,-29.67779 0.3526,-0.61982 8.84239,-2.70885 15.20019,-3.74019 7.04136,-1.14224 13.29929,-1.63592 20.54849,-1.62111 11.57064,0.0237 19.86082,1.32694 27.52345,4.32684 12.45605,4.87651 20.03541,14.1003 22.27612,27.10924 0.77078,4.47506 0.75775,3.89435 0.73559,32.76683 -0.0122,14.85483 -0.0657,33.71118 -0.12077,41.903 l -0.1001,14.8942 -0.32777,0.079 c -0.67668,0.16311 -25.47685,4.30222 -25.77737,4.30222 -0.30102,0 -0.31383,-0.0971 -0.313,-2.37398 v -2.37395 l 1.18569,-1.3232 c 3.49036,-3.89508 7.19397,-8.97266 10.6734,-14.63302 1.24908,-2.03198 4.52274,-7.66168 4.75242,-8.17269 0.0385,-0.0857 -0.40885,0.36947 -0.99404,1.01128 -2.84526,3.12061 -5.94797,6.34719 -11.63198,12.0964 -5.15944,5.21865 -6.50167,6.48938 -7.93916,7.5161 -6.38841,4.563 -12.63169,6.96513 -21.11094,8.12242 -1.61585,0.22054 -3.40731,0.32398 -6.30466,0.36396 -2.22608,0.0306 -4.18753,0.0306 -4.35879,-8e-5 z m 11.59076,-26.79225 c 8.0855,-1.24785 15.45534,-5.63935 18.43259,-10.98346 1.36647,-2.45283 1.92879,-4.93623 1.74867,-7.72258 -0.12016,-1.85711 -0.38094,-3.21341 -0.92052,-4.78593 -2.22299,-6.47854 -8.90997,-11.06914 -18.16435,-12.46977 -2.45929,-0.37225 -7.13333,-0.37519 -9.2624,-0.006 -8.1826,1.41946 -14.93973,6.07579 -17.52218,12.07458 -1.37583,3.19587 -1.44942,6.6757 -0.21507,10.16736 2.25409,6.37606 9.2274,11.8358 17.34946,13.58368 2.60956,0.5616 5.5217,0.60993 8.5538,0.14204 z m 190.15805,26.69771 c -15.41504,-0.83496 -29.02532,-5.65408 -39.46246,-13.97277 -2.01683,-1.60748 -6.18788,-5.79829 -7.8448,-7.88192 -5.03501,-6.33179 -8.51058,-13.62893 -10.52011,-22.08755 -3.48881,-14.68532 -2.13176,-33.09211 3.41529,-46.32358 6.77788,-16.16744 20.18742,-26.43943 39.31205,-30.11385 5.71539,-1.09812 10.27355,-1.48966 17.35723,-1.49108 6.42703,0 10.78252,0.36769 15.79406,1.33794 10.74132,2.07958 21.11264,6.77887 28.95293,13.1188 1.46865,1.18757 4.44486,3.90989 4.44486,4.06565 0,0.0948 -17.78983,20.78027 -18.53396,21.55079 -0.28709,0.29721 -0.30415,0.29006 -1.1918,-0.5008 -4.36573,-3.8896 -8.67801,-6.41732 -14.14028,-8.2886 -6.58534,-2.25601 -13.84884,-2.5404 -21.43675,-0.83931 -9.39392,2.10597 -16.77282,6.82933 -21.07183,13.48847 -4.81281,7.455 -5.92548,18.35644 -2.84035,27.82894 1.00305,3.07973 2.59614,6.33503 4.3043,8.79537 9.48739,13.665 27.09251,18.54333 42.60904,11.80691 4.78162,-2.07594 9.53799,-5.57773 12.83266,-9.44784 l 0.99549,-1.16937 6.0844,5.95198 c 6.65167,6.50688 9.38077,9.13297 11.57561,11.13892 0.78989,0.72191 1.43613,1.36552 1.43613,1.43028 0,0.2718 -3.52376,4.24323 -5.23283,5.89761 -11.6829,11.30891 -27.8598,16.733 -46.83888,15.70501 z M 812.35857,563.39245 c 0.0267,-30.84414 0.0967,-57.61969 0.15562,-59.50124 l 0.10719,-3.42105 13.77683,-2.37258 c 7.57725,-1.30495 13.8644,-2.37489 13.97143,-2.37771 0.15339,-0.004 0.19452,1.84625 0.19452,8.7465 v 8.75156 l 0.94707,-0.92913 c 0.5209,-0.51105 1.51672,-1.59465 2.21291,-2.40802 4.58211,-5.35322 7.21922,-7.39434 12.25137,-9.48243 6.72197,-2.78935 15.04014,-4.08656 28.62754,-4.46455 3.51065,-0.0977 3.63944,-0.0908 3.5592,0.19007 -0.1386,0.48477 -5.7193,13.53926 -7.74446,18.11566 -1.0419,2.35451 -2.55961,5.6189 -3.37268,7.25418 l -1.47828,2.97323 -2.12888,0.0991 c -1.17091,0.0545 -2.86653,0.19959 -3.76804,0.32256 -11.76288,1.60306 -22.34957,8.53297 -25.58696,16.74887 -0.94119,2.38861 -0.87546,-0.12867 -0.98005,37.51997 l -0.0958,34.48439 -15.19287,2.9205 c -8.3561,1.60632 -15.26295,2.91824 -15.34856,2.91542 -0.10354,-0.004 -0.13941,-18.77228 -0.10719,-56.08535 z"
       id="path5"
       sodipodi:nodetypes="csssssssssssscccssssssssssssscssccssssssssscsssssssssssssscssccssssssssccssssscssssssssssscsssssssssssscssssssscssscssssssscsssscsss" /><path
       style="fill:#d79921;stroke-width:0.315433"
       d="m 373.93866,711.88302 c 0.14062,-0.27183 5.40912,-9.78905 11.7079,-21.14938 54.72998,-98.70996 87.30792,-159.87718 110.76848,-207.97508 l 2.90899,-5.96393 2.30154,1.84358 c 9.36423,7.501 21.16064,14.61362 34.68094,20.9108 4.64636,2.16406 12.05117,5.35769 11.74648,5.06615 -0.12482,-0.11935 -1.80305,-1.35496 -3.72947,-2.7457 -8.6653,-6.25567 -17.15418,-13.23293 -24.90723,-20.47195 -2.84256,-2.6541 -10.69178,-10.47608 -13.90898,-13.86068 l -1.1975,-1.25984 2.89709,-6.29019 c 9.87156,-21.43292 15.09379,-33.83195 35.25175,-83.69722 1.91229,-4.73045 3.51695,-8.59914 3.56596,-8.59716 0.049,0.004 2.07956,4.71299 4.51231,10.46883 11.27756,26.68248 18.45875,43.40841 23.64173,55.06476 19.44564,43.73248 46.06026,96.35174 94.54196,186.91714 4.18115,7.81046 7.78263,14.55717 8.0033,14.9927 l 0.40126,0.79182 -0.35766,-0.18764 c -0.19675,-0.10314 -1.30337,-0.72906 -2.4592,-1.3907 -8.79155,-5.03266 -20.65351,-9.94063 -33.54699,-13.88031 -3.30683,-1.01043 -10.66341,-3.07653 -10.66341,-2.99483 0,0.0267 0.75305,0.44689 1.67345,0.93371 16.90651,8.94179 28.52971,16.68173 45.08468,30.02202 2.55716,2.06057 6.40131,5.15111 8.54259,6.86786 l 3.89326,3.12138 14.5367,26.90888 c 7.99519,14.7999 14.51782,26.92777 14.49472,26.95087 -0.0231,0.0231 -2.00256,-1.08072 -4.39881,-2.45294 -53.64503,-30.71939 -92.51259,-47.53952 -126.54913,-54.7648 -2.04992,-0.43514 -3.74136,-0.80691 -3.75877,-0.82612 -0.0182,-0.0203 0.13799,-0.91055 0.34549,-1.9808 0.50098,-2.58459 1.06317,-6.47754 1.40513,-9.72941 0.40432,-3.84525 0.40732,-15.50709 0.004,-19.30312 -1.01991,-9.62166 -2.88236,-17.47829 -6.03356,-25.45213 -1.09122,-2.76116 -3.80777,-8.14268 -5.34345,-10.58556 -6.30658,-10.03193 -14.01169,-16.11875 -22.89995,-18.09021 -1.34529,-0.29837 -2.01119,-0.34483 -4.9036,-0.34215 -3.6828,0.004 -4.79947,0.16858 -7.78353,1.15133 -9.3418,3.07658 -17.9649,12.11553 -23.49189,24.62485 -5.14758,11.65054 -7.58882,24.82019 -7.28115,39.27947 0.1382,6.49061 0.76448,11.99184 2.07158,18.19545 0.2144,1.01754 0.33272,1.8989 0.26287,1.95857 -0.0697,0.0596 -1.77314,0.44232 -3.78515,0.85033 -18.68209,3.78836 -39.68788,10.88768 -62.89084,21.25515 -13.12331,5.86374 -30.03647,14.33495 -45.68925,22.88421 -6.57227,3.58965 -18.96441,10.54364 -23.79152,13.35086 -0.0713,0.0415 -0.0142,-0.14691 0.12604,-0.41883 z m 346.2924,-34.95504 v -4.74796 h -1.79021 -1.79022 v -0.62268 -0.6227 h 4.28094 4.28094 v 0.6227 0.62268 h -1.79023 -1.7902 v 4.74796 4.74792 h -0.70051 -0.70051 z m 6.38251,-0.6227 v -5.37064 h 1.07673 1.07673 l 1.50476,4.51445 c 0.82764,2.48293 1.52485,4.51445 1.54932,4.51445 0.0245,0 0.7367,-2.03147 1.58266,-4.51441 l 1.53815,-4.51439 0.97293,-2e-5 0.97294,-8e-5 v 5.37064 5.37062 h -0.69808 -0.69809 l -0.0413,-4.39768 -0.0413,-4.3977 -0.91529,2.6464 c -0.50343,1.45552 -1.19499,3.43809 -1.53682,4.40572 l -0.62155,1.75929 -0.6232,-0.047 -0.62317,-0.047 -1.49823,-4.39652 -1.49824,-4.39655 -0.0413,4.43547 -0.0413,4.43545 h -0.69811 -0.69812 z"
       id="path6"
       sodipodi:nodetypes="scscsssssscsscsssscssssssscsscsssscssssssssssssssscccccccccccccccccccccssscccccccccsscccccccccc" /></g></svg>
