<?xml version="1.0" encoding="UTF-8" standalone="no"?>
<!-- Created with Inkscape (http://www.inkscape.org/) -->

<svg
   width="1920"
   height="1080"
   viewBox="0 0 1920 1080"
   version="1.1"
   id="svg1"
   xml:space="preserve"
   inkscape:version="1.4.2 (ebf0e940d0, 2025-05-08)"
   sodipodi:docname="arch-center-text.svg"
   inkscape:export-filename="../wallpapers/arch-center-text.png"
   inkscape:export-xdpi="96"
   inkscape:export-ydpi="96"
   xmlns:inkscape="http://www.inkscape.org/namespaces/inkscape"
   xmlns:sodipodi="http://sodipodi.sourceforge.net/DTD/sodipodi-0.dtd"
   xmlns="http://www.w3.org/2000/svg"
   xmlns:svg="http://www.w3.org/2000/svg"><sodipodi:namedview
     id="namedview1"
     pagecolor="#505050"
     bordercolor="#eeeeee"
     borderopacity="1"
     inkscape:showpageshadow="0"
     inkscape:pageopacity="0"
     inkscape:pagecheckerboard="0"
     inkscape:deskcolor="#505050"
     inkscape:document-units="px"
     inkscape:zoom="0.61822917"
     inkscape:cx="960"
     inkscape:cy="539.44398"
     inkscape:window-width="1898"
     inkscape:window-height="1022"
     inkscape:window-x="10"
     inkscape:window-y="46"
     inkscape:window-maximized="1"
     inkscape:current-layer="layer1" /><defs
     id="defs1" /><g
     inkscape:label="Layer 1"
     inkscape:groupmode="layer"
     id="layer1"><rect
       style="fill:#282828"
       id="rect1"
       width="1920"
       height="1080"
       x="0"
       y="0" /><path
       style="fill:#8ec07c;stroke-width:0.266939"
       d="m 1154.8375,835.61448 c -5.7925,-0.55651 -9.5391,-1.52572 -13.7009,-3.54418 -8.0845,-3.92105 -13.6547,-11.21132 -15.501,-20.28723 -0.2564,-1.26092 -0.2723,-1.97519 -0.3709,-16.66486 -0.057,-8.44112 -0.1475,-24.56893 -0.2014,-35.83963 l -0.098,-20.49211 5.8464,-1.19216 c 3.2155,-0.65568 5.865,-1.17723 5.888,-1.15898 0.022,0.0182 0.091,15.76364 0.1509,34.98982 l 0.1097,34.95666 0.3344,1.44914 c 1.8947,8.2132 7.2929,13.9769 14.9197,15.92961 2.6994,0.69116 3.6708,0.79181 7.6297,0.79055 3.9396,0 5.338,-0.1293 8.629,-0.79026 3.2925,-0.66121 5.8288,-1.52177 8.8923,-3.01702 7.9121,-3.86198 13.4261,-10.60427 15.4628,-18.90698 0.9373,-3.82127 0.8726,-1.35637 0.8726,-33.31903 v -28.77408 l 5.3817,-1.36972 c 2.9598,-0.75334 5.4149,-1.33633 5.4557,-1.29553 0.07,0.0703 0.3791,59.66269 0.4324,83.46428 l 0.024,11.13099 -5.2522,1.08137 c -2.8887,0.59475 -5.3856,1.08424 -5.5485,1.08774 l -0.2965,0.007 v -9.84741 c 0,-9.21612 -0.022,-9.81787 -0.2238,-9.38635 -2.1585,4.62391 -3.2983,6.43924 -6.0401,9.62055 -4.5102,5.23317 -11.399,9.09595 -18.8898,10.59216 -3.2505,0.64932 -4.4364,0.75397 -9.024,0.79662 -2.3911,0.0221 -4.5844,0.0177 -4.8742,-0.0103 z m 130.7859,-1.39301 c -0.2827,-0.38589 -7.1432,-9.91998 -15.2457,-21.18689 -8.1023,-11.2669 -14.8358,-20.59625 -14.9634,-20.73187 -0.2238,-0.23791 -0.7602,0.49356 -15.15,20.65476 -8.2049,11.49577 -14.9813,20.88029 -15.0585,20.85453 -0.3517,-0.11729 -8.1102,-5.97179 -8.0687,-6.08861 0.026,-0.0725 7.1678,-10.2247 15.8711,-22.56053 8.7033,-12.33584 15.8243,-22.46074 15.8243,-22.49982 0,-0.0391 -6.706,-8.84693 -14.9025,-19.57299 -8.1964,-10.72605 -14.8508,-19.54755 -14.7875,-19.60333 0.5059,-0.44665 7.4746,-5.83076 7.5973,-5.87 0.087,-0.0278 6.4423,7.97754 14.1226,17.78965 7.6803,9.8121 13.9939,17.83894 14.0301,17.83745 0.036,-0.003 5.4012,-7.62471 11.9223,-16.94044 6.5211,-9.31573 11.9194,-17.0266 11.9964,-17.13523 0.1149,-0.16291 0.8448,0.39896 4.1497,3.19592 2.2054,1.86645 4.0098,3.44229 4.0098,3.50188 0,0.0595 -5.8096,8.26778 -12.9103,18.24048 -7.1007,9.97266 -13.0177,18.29957 -13.1489,18.50424 l -0.2385,0.37211 16.2344,22.50203 c 8.929,12.37612 16.3773,22.69167 16.5517,22.92344 l 0.3171,0.42141 -3.6004,2.8578 c -1.9802,1.5718 -3.6989,2.94281 -3.8193,3.04671 -0.1965,0.16942 -0.272,0.1166 -0.7331,-0.5127 z m -187.2358,-35.44132 c 0,-37.99431 0.062,-35.13062 -0.8076,-37.6285 -1.9504,-5.60512 -6.3356,-10.56584 -11.6636,-13.19421 -3.8979,-1.92293 -8.1936,-2.74942 -13.4811,-2.59385 -6.1783,0.18178 -11.3224,1.4621 -16.6949,4.15531 -8.1867,4.10385 -14.6106,11.23492 -15.9191,17.6715 -0.2129,1.04731 -0.2229,3.09887 -0.1566,31.97355 l 0.071,30.85442 -0.6773,0.19206 c -1.9789,0.5611 -10.5057,2.74603 -10.5451,2.7021 -0.025,-0.0283 -0.1123,-16.05753 -0.1933,-35.62065 -0.081,-19.56308 -0.185,-40.84536 -0.2311,-47.29396 l -0.084,-11.72466 5.3855,-1.08837 c 2.962,-0.59861 5.4596,-1.08768 5.5502,-1.08684 0.127,0 0.1646,0.70501 0.1646,3.07572 0,1.6908 0.039,6.11151 0.087,9.8238 l 0.088,6.74968 0.2929,-0.71992 c 0.8375,-2.05843 2.4206,-4.85397 3.8554,-6.80785 3.5169,-4.78938 7.9031,-8.30839 13.3544,-10.71389 3.8635,-1.70487 7.9657,-2.70233 12.8699,-3.12945 2.335,-0.20335 8.9009,-0.0844 10.9499,0.19837 9.0048,1.24274 15.7797,4.7016 20.6623,10.54913 3.2526,3.89545 5.5993,9.11783 6.3445,14.11947 0.1012,0.68248 0.4614,49.3386 0.523,70.73203 v 1.19784 l -1.6796,0.35631 c -0.9239,0.19597 -3.1173,0.67003 -4.8744,1.05346 l -3.1947,0.69715 z m -98.0187,24.29947 c 0,-5.12628 -0.086,-25.88982 -0.1852,-46.14125 -0.099,-20.25144 -0.1408,-36.86114 -0.093,-36.91045 0.102,-0.10598 9.5433,-4.33298 9.578,-4.28824 0.045,0.0576 0.1746,94.81607 0.13,94.81607 -0.024,0 -2.0422,0.41497 -4.4838,0.92217 -2.4416,0.50718 -4.5519,0.92217 -4.6897,0.92217 -0.2437,0 -0.2506,-0.25115 -0.2561,-9.32047 z m -30.2099,-1.27404 c -0.13804,-17.74076 -0.34918,-121.19522 -0.24756,-121.28454 0.14695,-0.12913 10.85889,-2.77643 10.93327,-2.70201 0.0611,0.0611 0.54318,108.42982 0.55434,124.59938 l 0.005,7.60538 -0.29643,0.072 c -0.16308,0.0396 -2.67542,0.4752 -5.58315,0.96802 l -5.2867,0.89604 z m 338.1881,-0.0434 -0.034,-4.05093 -1.5479,-0.037 -1.5479,-0.037 v -0.52278 -0.52275 h 3.6886 3.6887 v 0.52695 0.52696 h -1.515 -1.515 v 4.08388 4.08388 h -0.5909 -0.591 z m 5.5639,-0.55988 v -4.61082 h 0.9121 0.9121 l 1.2928,3.88628 c 1.1347,3.41031 1.4939,4.30803 1.4939,3.73245 0,-0.0845 0.578,-1.83329 1.2845,-3.88597 l 1.2844,-3.73214 0.8234,-2.6e-4 h 0.8233 v 4.61081 4.61085 h -0.5907 -0.5908 l -0.034,-3.76516 -0.034,-3.76513 -1.3035,3.76513 -1.3034,3.76516 h -0.5584 -0.5583 l -1.3254,-3.85335 -1.3253,-3.85332 v 3.85332 3.85335 h -0.5928 -0.593 z M 1003.1886,712.03034 c -2.615,-2.93219 -5.38292,-6.13465 -5.38292,-6.22783 0,-0.11592 7.58222,-6.32613 7.72382,-6.32613 0.1027,0 6.3499,6.92163 6.4121,7.1045 0.022,0.0646 -1.6083,1.49446 -3.6228,3.17742 -2.0145,1.68298 -3.7599,3.14394 -3.8787,3.2466 -0.1928,0.16667 -0.3267,0.0624 -1.2515,-0.97456 z"
       id="path3"
       sodipodi:nodetypes="ssssscssscssssssscssscsscscsssssssssssssssssssssssscsscsssssssssscsssscscsscsssssssscsscssssssssssssscsscscccccccccccccccccccccsssccccccccccccccccccccsssssss" /><path
       style="fill:#fb4934;stroke-width:0.266939"
       d="m 925.02183,833.55478 c 0,-1.0325 -0.091,-17.14242 -0.20402,-35.79981 -0.2263,-37.37108 -0.1413,-34.42702 -1.04557,-36.2201 -1.64157,-3.25523 -5.01232,-5.97988 -9.15916,-7.40357 -2.43261,-0.83518 -4.38289,-1.15038 -7.77255,-1.25616 -6.09378,-0.19022 -11.43533,1.05923 -16.12784,3.77248 -4.5594,2.6363 -7.91195,6.54051 -8.91863,10.38625 -0.26056,0.99536 -0.26808,1.59445 -0.40623,32.30193 -0.0773,17.20832 -0.1533,31.30352 -0.16856,31.32275 -0.0701,0.0881 -24.09555,4.37065 -24.15972,4.30646 -0.077,-0.077 -0.28623,-131.04049 -0.2095,-131.1199 0.0249,-0.0255 5.42857,-1.31273 12.00857,-2.8604 6.58001,-1.54765 12.097,-2.84687 12.26005,-2.88718 l 0.29641,-0.0734 V 716.33 734.63584 l -0.88926,0.74782 c -4.08348,3.43395 -8.83131,8.43531 -13.37509,14.08921 -0.87343,1.08684 -1.68195,2.09054 -1.79668,2.23044 -0.19849,0.24204 -0.19569,0.24525 0.0576,0.0659 0.14644,-0.10374 1.1246,-0.87436 2.1737,-1.71263 2.32592,-1.85856 4.54662,-3.52707 8.98254,-6.74901 1.86257,-1.35282 4.4117,-3.2196 5.66475,-4.14839 2.4655,-1.82752 3.18283,-2.26733 5.00819,-3.07058 3.66023,-1.61074 8.37533,-2.70502 13.83483,-3.21088 2.5886,-0.23986 8.26913,-0.27462 10.8159,-0.0662 11.49984,0.94107 22.03908,4.96057 29.72776,11.33764 3.73131,3.09475 6.42564,6.6876 7.16801,9.5584 0.18895,0.73062 0.20934,4.54395 0.20934,39.15664 v 38.34716 l -0.29643,0.0667 c -0.41547,0.0933 -23.47128,4.154 -23.5861,4.154 -0.0516,0 -0.0931,-0.84478 -0.0924,-1.87728 z m -290.81319,0.49379 c -0.1449,-0.0262 -0.91557,-0.1142 -1.71259,-0.19572 -0.797,-0.0816 -2.51969,-0.35177 -3.8282,-0.60043 -11.13442,-2.11574 -20.17932,-7.94277 -25.55183,-16.4613 -0.92975,-1.47421 -2.52012,-4.71997 -3.14292,-6.41437 -2.15676,-5.86778 -3.07346,-12.97269 -2.58031,-19.99911 0.84739,-12.07374 6.70576,-20.85784 17.51625,-26.2641 5.44387,-2.72246 10.95685,-4.24929 18.39683,-5.09507 3.02786,-0.34421 8.66466,-0.48147 11.15266,-0.27157 6.68633,0.56406 12.11239,2.70852 15.61394,6.17086 l 1.11442,1.10196 -0.0715,-2.08168 c -0.0777,-2.26018 -0.32308,-3.70861 -0.85464,-5.04377 -1.402,-3.52146 -4.68351,-5.58176 -10.57285,-6.63816 -2.47226,-0.44348 -3.92416,-0.54355 -7.83844,-0.54033 -3.37352,0.003 -4.28,0.0477 -6.19169,0.30614 -6.36383,0.86056 -14.56568,2.50391 -23.71285,4.75117 -1.4491,0.35603 -2.64505,0.63718 -2.65764,0.6248 -0.0564,-0.0554 4.58139,-24.94063 4.6807,-25.11521 0.29839,-0.52453 7.48298,-2.2924 12.86336,-3.16518 5.95883,-0.96664 11.25469,-1.38443 17.38941,-1.37189 9.79181,0.0201 16.80748,1.12294 23.29209,3.66164 10.54109,4.12681 16.95522,11.93256 18.85145,22.94155 0.65228,3.78708 0.64125,3.29564 0.62249,27.72935 -0.0103,12.57109 -0.0555,28.52852 -0.1022,35.46095 l -0.0847,12.60441 -0.27738,0.0669 c -0.57265,0.13804 -21.56011,3.64081 -21.81442,3.64081 -0.25475,0 -0.26559,-0.0821 -0.26489,-2.00901 v -2.00898 l 1.0034,-1.11978 c 2.95377,-3.29626 6.088,-7.59323 9.03251,-12.38338 1.05705,-1.71959 3.82742,-6.4838 4.02179,-6.91625 0.0326,-0.0725 -0.34599,0.31267 -0.84121,0.85581 -2.40784,2.64086 -5.03355,5.37139 -9.84371,10.23674 -4.36625,4.41635 -5.50213,5.49172 -6.71863,6.36059 -5.40627,3.8615 -10.68972,5.89433 -17.8654,6.87371 -1.36743,0.18663 -2.88348,0.27417 -5.3354,0.30801 -1.88385,0.0259 -3.54375,0.0259 -3.68868,-7e-5 z m 9.80883,-22.67329 c 6.84247,-1.05601 13.07929,-4.77237 15.59882,-9.2949 1.15639,-2.07573 1.63226,-4.17734 1.47983,-6.53532 -0.10168,-1.57161 -0.32237,-2.7194 -0.779,-4.05016 -1.88123,-5.48255 -7.54017,-9.3674 -15.37182,-10.5527 -2.0812,-0.31502 -6.03667,-0.31751 -7.83842,-0.005 -6.92463,1.20124 -12.64294,5.14172 -14.82836,10.21827 -1.16432,2.70454 -1.2266,5.64939 -0.18201,8.60426 1.90755,5.39582 7.80881,10.01619 14.6822,11.49536 2.20837,0.47527 4.67281,0.51616 7.23876,0.1202 z m 160.92371,22.59328 c -13.04518,-0.70659 -24.56306,-4.78484 -33.39562,-11.82464 -1.70676,-1.36034 -5.23657,-4.90687 -6.63876,-6.67017 -4.26094,-5.35836 -7.20219,-11.53366 -8.90278,-18.69188 -2.95245,-12.42763 -1.80403,-28.00462 2.89023,-39.20192 5.73587,-13.68191 17.08387,-22.37472 33.26833,-25.48423 4.83672,-0.92931 8.69413,-1.26065 14.68879,-1.26185 5.43895,0 9.12484,0.31116 13.36592,1.13224 9.08998,1.75988 17.86685,5.73671 24.50179,11.10196 1.24286,1.005 3.76152,3.3088 3.76152,3.44061 0,0.0802 -15.05487,17.58557 -15.6846,18.23763 -0.24295,0.25152 -0.25739,0.24547 -1.00858,-0.4238 -3.69455,-3.29163 -7.34388,-5.43074 -11.9664,-7.01434 -5.57293,-1.90918 -11.71976,-2.14984 -18.14112,-0.71027 -7.94973,1.78219 -14.19421,5.7794 -17.83231,11.41478 -4.0729,6.30889 -5.01451,15.53438 -2.40368,23.5506 0.84884,2.60627 2.19702,5.36111 3.64257,7.4432 8.02883,11.56418 22.92738,15.69253 36.05845,9.99175 4.04651,-1.75679 8.07165,-4.72023 10.8598,-7.99536 l 0.84245,-0.98959 5.14901,5.03694 c 5.62905,5.50653 7.93859,7.7289 9.796,9.42645 0.66845,0.61093 1.21535,1.15559 1.21535,1.21039 0,0.23002 -2.98203,3.59089 -4.42836,4.99094 -9.8868,9.5703 -23.57671,14.16051 -39.638,13.29056 z M 701.69957,786.5243 c 0.0226,-26.10225 0.0818,-48.76141 0.13169,-50.3537 l 0.0907,-2.8951 11.65882,-2.00783 c 6.41234,-1.10433 11.73293,-2.00979 11.8235,-2.01217 0.12981,-0.003 0.16462,1.56242 0.16462,7.40184 v 7.40612 l 0.80147,-0.78629 c 0.44082,-0.43248 1.28354,-1.34949 1.8727,-2.03782 3.87767,-4.53022 6.10936,-6.25755 10.36789,-8.02462 5.68855,-2.36053 12.7279,-3.45831 24.22642,-3.77818 2.97093,-0.0827 3.07992,-0.0768 3.01202,0.16084 -0.11729,0.41025 -4.84004,11.45778 -6.55385,15.33061 -0.88172,1.99254 -2.1661,4.75507 -2.85417,6.13894 l -1.25101,2.51614 -1.8016,0.0839 c -0.9909,0.0461 -2.42584,0.1689 -3.18876,0.27297 -9.95448,1.35661 -18.91361,7.22114 -21.65329,14.17394 -0.79649,2.0214 -0.74086,-0.10888 -0.82938,31.75177 l -0.0811,29.18286 -12.85717,2.4715 c -7.07145,1.35937 -12.91646,2.4696 -12.98891,2.46722 -0.0876,-0.003 -0.11798,-15.88628 -0.0907,-47.46295 z"
       id="path5"
       sodipodi:nodetypes="csssssssssssscccssssssssssssscssccssssssssscsssssssssssssscssccssssssssccssssscssssssssssscsssssssssssscssssssscssscssssssscsssscsss" /><path
       style="fill:#d79921;stroke-width:0.415058"
       d="m 721.31316,697.25875 c 0.18504,-0.35769 7.11751,-12.88077 15.40566,-27.82908 72.0156,-129.88599 114.88278,-210.37193 145.753,-273.66081 l 3.82775,-7.84756 3.02844,2.42586 c 12.32179,9.87007 27.8439,19.2291 45.63439,27.51516 6.11383,2.84753 15.85735,7.04983 15.45642,6.6662 -0.16428,-0.15707 -2.37253,-1.7829 -4.90736,-3.61289 -11.40211,-8.23141 -22.57208,-17.41235 -32.7738,-26.93769 -3.74035,-3.49236 -14.06862,-13.7848 -18.30192,-18.23835 l -1.5757,-1.65776 3.81208,-8.27685 c 12.98934,-28.20217 19.86093,-44.51725 46.38547,-110.13185 2.51626,-6.22429 4.62773,-11.31493 4.69222,-11.31236 0.0645,0 2.73637,6.20148 5.93744,13.77529 14.83941,35.10982 24.28867,57.11833 31.10862,72.45616 25.58723,57.5447 60.60773,126.78295 124.40153,245.95204 5.5017,10.27726 10.2407,19.15483 10.5311,19.72791 l 0.528,1.0419 -0.4707,-0.2469 c -0.2589,-0.13564 -1.715,-0.95931 -3.2359,-1.82994 -11.5682,-6.62214 -27.1766,-13.08022 -44.1423,-18.26419 -4.3512,-1.32955 -14.0313,-4.0482 -14.0313,-3.9407 0,0.0352 0.9909,0.58804 2.202,1.22861 22.2462,11.76593 37.5404,21.95041 59.324,39.504 3.3648,2.71139 8.4231,6.77802 11.2407,9.03698 l 5.1228,4.10723 19.1279,35.40762 c 10.5205,19.47423 19.1032,35.4325 19.0728,35.4629 -0.029,0.0303 -2.6351,-1.42205 -5.7882,-3.22767 -70.588,-40.42162 -121.7313,-62.55414 -166.5177,-72.06141 -2.69738,-0.57258 -4.92305,-1.06176 -4.94595,-1.08705 -0.024,-0.0266 0.18158,-1.19813 0.45459,-2.6064 0.65921,-3.4009 1.39896,-8.52337 1.84892,-12.8023 0.53204,-5.0597 0.53594,-20.40476 0.005,-25.39971 -1.34203,-12.6605 -3.7927,-22.99855 -7.93916,-33.49078 -1.43586,-3.63325 -5.01038,-10.71444 -7.03108,-13.92885 -8.29843,-13.20037 -18.43708,-21.20961 -30.13256,-23.80372 -1.77018,-0.39262 -2.64639,-0.45375 -6.45233,-0.45023 -4.84595,0.005 -6.31531,0.22184 -10.24183,1.51497 -12.29227,4.04827 -23.63884,15.94204 -30.91144,32.40222 -6.77337,15.33018 -9.98563,32.65926 -9.58078,51.68529 0.18183,8.54057 1.00592,15.77928 2.72585,23.94221 0.28212,1.33891 0.4378,2.49863 0.34589,2.57715 -0.0917,0.0784 -2.33317,0.58203 -4.98063,1.1189 -24.58254,4.98483 -52.22268,14.32639 -82.75396,27.96826 -17.26809,7.71571 -39.52301,18.86242 -60.11948,30.11184 -8.64802,4.72337 -24.95403,13.87366 -31.3057,17.56751 -0.0938,0.0547 -0.0187,-0.19331 0.16581,-0.55111 z M 1176.9768,651.2637 v -6.24754 h -2.3557 -2.3556 v -0.81934 -0.81937 h 5.633 5.633 v 0.81937 0.81934 h -2.3556 -2.3557 v 6.24754 6.24747 h -0.9217 -0.9217 z m 8.3982,-0.81937 v -7.06688 h 1.4168 1.4169 l 1.9799,5.94027 c 1.0889,3.26714 2.0064,5.94027 2.0387,5.94027 0.032,0 0.9694,-2.67308 2.0826,-5.94022 l 2.0239,-5.94018 1.2801,-4e-5 1.2804,-1e-4 v 7.06688 7.06684 h -0.9186 -0.9188 l -0.053,-5.78661 -0.053,-5.78664 -1.2044,3.48222 c -0.6623,1.91522 -1.5723,4.52395 -2.0221,5.79719 l -0.818,2.31493 -0.8198,-0.0619 -0.8202,-0.0619 -1.9714,-5.7851 -1.9715,-5.78513 -0.053,5.83635 -0.053,5.83632 h -0.9185 -0.9186 z"
       id="path6"
       sodipodi:nodetypes="scscsssssscsscsssscssssssscsscsssscssssssssssssssscccccccccccccccccccccssscccccccccsscccccccccc" /></g></svg>
