<?xml version="1.0" encoding="UTF-8" standalone="no"?>
<!-- Created with Inkscape (http://www.inkscape.org/) -->

<svg
   width="1920"
   height="1080"
   viewBox="0 0 1920 1080"
   version="1.1"
   id="svg1"
   xml:space="preserve"
   inkscape:version="1.4.2 (ebf0e940d0, 2025-05-08)"
   sodipodi:docname="ribbon-i3-right.svg"
   inkscape:export-filename="../wallpapers/ribbon-i3-right.png"
   inkscape:export-xdpi="96"
   inkscape:export-ydpi="96"
   xmlns:inkscape="http://www.inkscape.org/namespaces/inkscape"
   xmlns:sodipodi="http://sodipodi.sourceforge.net/DTD/sodipodi-0.dtd"
   xmlns="http://www.w3.org/2000/svg"
   xmlns:svg="http://www.w3.org/2000/svg"><sodipodi:namedview
     id="namedview1"
     pagecolor="#505050"
     bordercolor="#eeeeee"
     borderopacity="1"
     inkscape:showpageshadow="0"
     inkscape:pageopacity="0"
     inkscape:pagecheckerboard="0"
     inkscape:deskcolor="#505050"
     inkscape:document-units="px"
     inkscape:zoom="0.39590614"
     inkscape:cx="683.24275"
     inkscape:cy="526.63998"
     inkscape:window-width="1898"
     inkscape:window-height="1022"
     inkscape:window-x="10"
     inkscape:window-y="46"
     inkscape:window-maximized="1"
     inkscape:current-layer="layer1" /><defs
     id="defs1" /><g
     inkscape:label="Layer 1"
     inkscape:groupmode="layer"
     id="layer1"><rect
       style="fill:#282828;stroke:none"
       id="rect1"
       width="1920"
       height="1080"
       x="0"
       y="0" /><path
       style="fill:#d79921;stroke:none;stroke-width:1.0002;stroke-opacity:1"
       d="M 0.6754049,566.50004 V 540 H 640.69246 1280.7096 l 16.5003,16.75003 c 9.0752,9.21251 20.766,21.13753 25.9796,26.50004 l 9.4794,9.75002 H 666.67215 0.6754049 Z"
       id="path4"
       sodipodi:nodetypes="ccccsscccc" /><path
       style="fill:#8ec07c;stroke:none;stroke-width:1.06586;stroke-opacity:1"
       d="M 0.65868852,619.50065 V 593.00009 H 666.66658 1332.6745 l 17.599,15.75033 c 9.6794,8.66269 22.9557,20.58793 29.503,26.50055 l 11.904,10.75024 H 696.16965 0.65868852 Z"
       id="path6"
       sodipodi:nodetypes="ccccsscccc" /><path
       style="fill:#fe8019;stroke:none;stroke-width:0.980499;stroke-opacity:1"
       d="M 0.67542131,513.49996 V 486.99991 H 615.72628 1230.7772 l 15.8566,16.75003 c 8.7212,9.21252 19.956,21.13754 24.9662,26.50004 L 1280.7096,540 H 640.69247 0.67542131 Z"
       id="path7"
       sodipodi:nodetypes="ccccsscccc" /><path
       style="fill:#fb4934;stroke:none;stroke-width:0.961185;stroke-opacity:1"
       d="M 0.67539163,460.49987 V 433.99983 H 591.73396 1182.7925 l 15.2381,16.75003 c 8.381,9.21251 19.1775,21.13753 23.9923,26.50004 l 8.7543,9.75001 H 615.72626 0.67539163 Z"
       id="path8"
       sodipodi:nodetypes="ccccsscccc" /><path
       style="fill:#a89984;fill-opacity:1;stroke-width:0.804338"
       d="m 1473.6112,646.22655 c -27.9377,-3.3891 -56.2209,-15.2099 -77.2165,-32.2725 -3.3179,-2.6964 -27.2399,-26.1942 -53.16,-52.2174 -53.3629,-53.5751 -50.9045,-50.5357 -50.956,-62.9995 -0.025,-6.0271 0.2713,-7.4714 2.5005,-12.1927 3.1433,-6.6577 7.9667,-11.4526 14.7154,-14.6284 6.8054,-3.2025 15.5115,-3.4172 22.9552,-0.5663 4.5642,1.748 7.4009,4.411 52.282,49.0815 27.2168,27.089 49.6858,48.7955 52.6842,50.8965 36.0817,25.2816 83.6811,21.4707 114.8899,-9.1984 31.207,-30.6672 35.4579,-79.4032 10.0785,-115.5487 -2.2029,-3.1374 -23.3123,-24.9992 -50.9922,-52.8097 -44.6705,-44.8812 -47.3336,-47.7178 -49.0815,-52.282 -2.8665,-7.4843 -2.6379,-16.1373 0.6096,-23.0769 3.1572,-6.7469 7.7978,-11.3892 14.591,-14.5966 4.7149,-2.2261 6.1612,-2.5225 12.1867,-2.4976 12.4639,0.051 9.4245,-2.4069 62.9995,50.9559 26.0233,25.9202 49.5211,49.8422 52.2174,53.1601 17.3919,21.4007 28.4961,47.9918 32.0255,76.6902 1.232,10.0182 0.5717,31.9927 -1.2726,42.3519 -10.8322,60.8414 -59.1201,109.1414 -120.231,120.2608 -7.3623,1.3396 -34.9601,2.3226 -41.8256,1.4898 z m 6.4983,-119.8167 c -1.9556,-0.7056 -4.8512,-2.1206 -6.4347,-3.1443 -1.5833,-1.0238 -23.0228,-22.073 -47.6433,-46.7761 -35.391,-35.5098 -45.2437,-45.8409 -47.0531,-49.3384 -2.0677,-3.9967 -2.2888,-5.2007 -2.2893,-12.4673 -6e-4,-7.2636 0.2274,-8.508 2.3521,-12.8352 2.9053,-5.9171 7.9191,-10.8957 13.9612,-13.8627 4.1093,-2.0179 5.455,-2.2583 12.6422,-2.2577 7.2665,6e-4 8.4707,0.2217 12.4673,2.2892 3.5057,1.8136 13.8832,11.7298 49.9981,47.776 52.45,52.3502 50.1272,49.4527 50.1364,62.5416 0.01,7.0167 -0.2649,8.6203 -2.1139,12.5638 -2.9802,6.3557 -7.2356,10.7189 -13.4302,13.7705 -4.5646,2.2484 -6.299,2.6504 -12.1796,2.8227 -4.6992,0.1377 -7.9763,-0.2029 -10.4132,-1.0821 z m -229.3568,-62.5031 c -8.0722,-2.29 -15.017,-8.0833 -18.992,-15.8429 -2.0393,-3.9811 -2.2662,-5.229 -2.2662,-12.4673 0,-7.1233 0.2501,-8.5525 2.1859,-12.4941 2.7913,-5.6838 8.5881,-11.479 14.2723,-14.269 3.8952,-1.9118 5.4143,-2.1868 12.0958,-2.1898 6.5977,0 8.2647,0.2889 12.206,2.1366 9.3129,4.3657 15.136,12.0088 16.8749,22.1495 2.913,16.9874 -9.6422,32.6899 -26.9354,33.6874 -3.3492,0.1932 -7.3056,-0.1045 -9.4413,-0.7104 z m 82.5015,-84.4813 c -13.6565,-4.4863 -22.5314,-19.4583 -19.6892,-33.2157 1.335,-6.4617 3.9571,-11.2683 8.5632,-15.6973 4.6514,-4.4725 8.6969,-6.5996 15.0425,-7.9093 12.21,-2.5201 25.6476,4.2175 31.5108,15.7997 2.1836,4.3135 2.3766,5.3806 2.3766,13.1403 0,7.6852 -0.2017,8.8284 -2.2401,12.6973 -3.1987,6.071 -7.0404,9.9905 -12.8265,13.0863 -4.4847,2.3995 -5.8417,2.7228 -12.2809,2.9266 -4.4299,0.1401 -8.4876,-0.1812 -10.4564,-0.8279 z m 85.4818,-83.767 c -8.3369,-2.2949 -15.1565,-8.1799 -19.0152,-16.4092 -1.825,-3.8923 -2.1191,-5.5821 -2.1162,-12.1616 0,-6.6815 0.278,-8.2007 2.1898,-12.0959 2.7899,-5.6842 8.5852,-11.4809 14.269,-14.2723 3.9416,-1.9358 5.3708,-2.1858 12.494,-2.1858 7.2354,0 8.4878,0.2274 12.4673,2.2639 6.0971,3.1203 11.5028,8.6557 14.1977,14.5384 1.9365,4.2273 2.2509,5.9274 2.2474,12.1539 0,5.7764 -0.368,8.0386 -1.8053,11.1966 -6.1899,13.6008 -21.0116,20.8027 -34.9285,16.972 z"
       id="path1" /></g></svg>
