<?xml version="1.0" encoding="UTF-8" standalone="no"?>
<!-- Created with Inkscape (http://www.inkscape.org/) -->

<svg
   width="1920"
   height="1080"
   viewBox="0 0 1920 1080"
   version="1.1"
   id="svg1"
   xml:space="preserve"
   inkscape:version="1.4.2 (ebf0e940d0, 2025-05-08)"
   sodipodi:docname="ribbon-arch-right.svg"
   inkscape:export-filename="../wallpapers/ribbon-arch-right.png"
   inkscape:export-xdpi="96"
   inkscape:export-ydpi="96"
   xmlns:inkscape="http://www.inkscape.org/namespaces/inkscape"
   xmlns:sodipodi="http://sodipodi.sourceforge.net/DTD/sodipodi-0.dtd"
   xmlns="http://www.w3.org/2000/svg"
   xmlns:svg="http://www.w3.org/2000/svg"><sodipodi:namedview
     id="namedview1"
     pagecolor="#505050"
     bordercolor="#eeeeee"
     borderopacity="1"
     inkscape:showpageshadow="0"
     inkscape:pageopacity="0"
     inkscape:pagecheckerboard="0"
     inkscape:deskcolor="#505050"
     inkscape:document-units="px"
     inkscape:zoom="0.61822917"
     inkscape:cx="960"
     inkscape:cy="539.44398"
     inkscape:window-width="1898"
     inkscape:window-height="1022"
     inkscape:window-x="10"
     inkscape:window-y="46"
     inkscape:window-maximized="1"
     inkscape:current-layer="layer1" /><defs
     id="defs1" /><g
     inkscape:label="Layer 1"
     inkscape:groupmode="layer"
     id="layer1"><rect
       style="fill:#282828"
       id="rect1"
       width="1920"
       height="1080"
       x="0"
       y="0" /><path
       style="fill:#fe8019;stroke:#d08770;stroke-width:0.948787;stroke-opacity:1"
       d="m 1.1064041,513.54389 v 26.50895 H 576.82223 1199.8373 l 8.7769,-16.75565 c 5.7127,-10.9057 18.5453,-36.26225 18.5453,-36.26225 H 600.1918 1.1064041 Z"
       id="path4"
       sodipodi:nodetypes="ccccscccc" /><path
       style="fill:#fb4934;stroke:#bf616a;stroke-width:1.012;stroke-opacity:1"
       d="m -0.01927081,460.52599 v 26.50895 H 600.1918 1227.1595 l 7.9697,-15.75531 c 5.5499,-10.97181 9.6528,-18.98084 13.2755,-26.50895 l 5.1749,-10.75363 H 626.78019 -0.01927081 Z"
       id="path6"
       sodipodi:nodetypes="ccccsscccc" /><path
       style="fill:#d79921;stroke:#ebcb8b;stroke-width:0.930097;stroke-opacity:1"
       d="m 1.1064041,566.56179 v 26.50895 H 554.36434 1171.5762 l 8.99,-16.75566 c 5.7219,-10.66449 10.8421,-20.31469 14.116,-26.50895 l 5.1551,-9.75329 H 576.82223 1.1064041 Z"
       id="path7"
       sodipodi:nodetypes="ccccsscccc" /><path
       style="fill:#8ec07c;stroke:#a3be8c;stroke-width:0.911776;stroke-opacity:1"
       d="m 1.1064041,619.57969 v 26.50895 H 532.7825 1142.8556 c 9.6248,-17.64484 19.1808,-35.32698 28.7206,-53.0179 H 554.36434 1.1064041 Z"
       id="path8"
       sodipodi:nodetypes="cccccccc" /><path
       style="fill:#458588"
       d="m 1105.4386,796.48347 c 0,-0.2519 8.0417,-14.94 17.8705,-32.6403 48.0162,-86.4712 89.5205,-162.8897 119.5852,-220.1824 12.8568,-24.5004 47.7409,-93.5896 48.6853,-96.423 0.2864,-0.8593 3.3106,0.8631 8.8676,5.0504 11.1575,8.4074 26.7372,17.7372 41.4914,24.8467 13.5178,6.5137 21.5,10.0722 21.5,9.5847 0,-0.1808 -4.0648,-3.3437 -9.0329,-7.0288 -18.6621,-13.8424 -52.105,-44.2385 -53.4965,-48.6227 -0.4219,-1.3293 2.6648,-9.3002 9.3799,-24.2215 10.7506,-23.8886 20.9094,-48.0828 39.6527,-94.437 6.5052,-16.0882 11.9249,-29.1382 12.0438,-29 0.1189,0.1381 7.0878,16.4512 15.4866,36.2512 43.4612,102.4599 72.1145,161.0974 152.7033,312.5 11.271,21.175 22.0977,41.389 24.0591,44.9201 l 3.5664,6.42 -7.4312,-4.0797 c -4.0872,-2.2438 -12.1562,-6.0861 -17.9312,-8.5384 -11.9965,-5.0943 -38.6523,-14.0045 -40.2764,-13.4632 -0.597,0.199 2.4835,2.312 6.8455,4.6956 19.2035,10.4936 34.8574,21.3068 60.7013,41.9308 l 15.7704,12.5851 21.4796,39.7744 c 11.8138,21.8759 21.4796,39.9746 21.4796,40.2193 0,0.2447 -3.9375,-1.8318 -8.75,-4.6143 -71.0447,-41.0782 -135.838,-69.221 -183.099,-79.5288 l -8.349,-1.8209 0.5824,-4.5 c 1.886,-14.5719 2.648,-27.6073 2.0755,-35.5 -2.9706,-40.9469 -18.6751,-72.1116 -42.166,-83.6761 -6.2229,-3.0635 -7.5017,-3.3239 -16.3247,-3.3239 -9.042,0 -9.9926,0.2074 -17.1407,3.7402 -17.9378,8.8654 -31.8252,31.1136 -37.7526,60.4814 -3.6616,18.1414 -3.6441,43.6707 0.039,57.6293 0.5589,2.1181 0.8148,4.0523 0.5688,4.2984 -0.2461,0.246 -5.3382,1.5493 -11.3157,2.896 -36.2484,8.1668 -71.1111,21.5337 -120.3684,46.1513 -16.775,8.3837 -39.6125,20.3823 -50.75,26.6635 -11.1375,6.2812 -20.25,11.2144 -20.25,10.9626 z"
       id="path9"
       sodipodi:nodetypes="ssssssssssssssscssssscsscscsssssssssssss" /></g></svg>
