<?xml version="1.0" encoding="UTF-8" standalone="no"?>
<!-- Created with Inkscape (http://www.inkscape.org/) -->

<svg
   width="1920"
   height="1080"
   viewBox="0 0 1920 1080"
   version="1.1"
   id="svg1"
   xml:space="preserve"
   inkscape:version="1.4.2 (ebf0e940d0, 2025-05-08)"
   sodipodi:docname="triangles-arch-center-i3-bottomright.svg"
   xmlns:inkscape="http://www.inkscape.org/namespaces/inkscape"
   xmlns:sodipodi="http://sodipodi.sourceforge.net/DTD/sodipodi-0.dtd"
   xmlns="http://www.w3.org/2000/svg"
   xmlns:svg="http://www.w3.org/2000/svg"><sodipodi:namedview
     id="namedview1"
     pagecolor="#505050"
     bordercolor="#eeeeee"
     borderopacity="1"
     inkscape:showpageshadow="0"
     inkscape:pageopacity="0"
     inkscape:pagecheckerboard="0"
     inkscape:deskcolor="#505050"
     inkscape:document-units="px"
     showguides="true"
     inkscape:zoom="0.51559869"
     inkscape:cx="860.1651"
     inkscape:cy="536.26979"
     inkscape:window-width="1898"
     inkscape:window-height="1022"
     inkscape:window-x="10"
     inkscape:window-y="46"
     inkscape:window-maximized="1"
     inkscape:current-layer="layer1" /><defs
     id="defs1"><filter
       inkscape:collect="always"
       style="color-interpolation-filters:sRGB"
       id="filter24"
       x="-0.075010216"
       y="-0.074989781"
       width="1.1500204"
       height="1.1499796"><feGaussianBlur
         inkscape:collect="always"
         stdDeviation="12.498297"
         id="feGaussianBlur24" /></filter><filter
       inkscape:collect="always"
       style="color-interpolation-filters:sRGB"
       id="filter25"
       x="-0.079553938"
       y="-0.079537895"
       width="1.1590703"
       height="1.159079"><feGaussianBlur
         inkscape:collect="always"
         stdDeviation="6.874306"
         id="feGaussianBlur25" /></filter></defs><g
     inkscape:label="Layer 1"
     inkscape:groupmode="layer"
     id="layer1"><g
       id="g1"
       style="fill:#83a598"><rect
         style="opacity:0.193867;fill:#83a598;stroke:none;stroke-width:0.0210405"
         id="rect19"
         width="2231.9473"
         height="8.3207655"
         x="-611.92987"
         y="915.60242"
         transform="matrix(0.89401388,-0.44803926,0.55381443,0.83264012,0,0)" /><rect
         style="opacity:0.193867;fill:#83a598;stroke:none;stroke-width:0.0210405"
         id="rect20"
         width="2231.9473"
         height="8.3207655"
         x="-678.57831"
         y="1023.1919"
         transform="matrix(0.89401388,-0.44803926,0.55381443,0.83264012,0,0)" /><rect
         style="opacity:0.193867;fill:#83a598;stroke:none;stroke-width:0.0210405"
         id="rect21"
         width="2231.9473"
         height="8.3207655"
         x="-478.63303"
         y="700.4234"
         transform="matrix(0.89401388,-0.44803926,0.55381443,0.83264012,0,0)" /><rect
         style="opacity:0.193867;fill:#83a598;stroke:none;stroke-width:0.0210405"
         id="rect22"
         width="2231.9473"
         height="8.3207655"
         x="-545.28143"
         y="808.01288"
         transform="matrix(0.89401388,-0.44803926,0.55381443,0.83264012,0,0)" /></g><rect
       style="opacity:0.747186;fill:#282828;stroke:none;stroke-width:0.1"
       id="rect16"
       width="1920"
       height="1080"
       x="0"
       y="0" /><path
       style="fill:#3c3836;stroke:none;stroke-width:0.0994645"
       d="M 0,1080 540,0 H 0 Z"
       id="path18" /><path
       style="fill:#665c54;stroke:none;stroke-width:0.1"
       d="M 0,0 960,1080 V 0 H 0"
       id="path19" /><path
       style="mix-blend-mode:normal;fill:#eceff4;stroke:none;stroke-width:2.223;stroke-dasharray:none;stroke-opacity:1;filter:url(#filter24);opacity:0.5"
       d="m 760.05461,739.71976 c 0,-0.23903 8.75909,-16.26369 19.46474,-35.6104 55.06109,-99.5041 89.55589,-164.02989 113.31916,-211.97441 6.8968,-13.91486 12.8292,-25.30815 13.1832,-25.31841 0.35395,-0.0103 3.31806,1.99 6.58686,4.44501 9.34892,7.02132 19.79217,13.29264 32.4268,19.47268 6.41458,3.1376 11.91749,5.70473 12.22875,5.70473 0.31131,0 -2.15812,-2.10652 -5.48766,-4.68115 -17.62909,-13.63244 -40.70343,-35.57316 -39.95629,-37.99334 0.23354,-0.75646 4.65452,-10.82349 9.82452,-22.3712 5.16994,-11.54766 15.83703,-36.83521 23.70468,-56.19452 C 953.21692,355.83943 959.88315,340 960.16297,340 c 0.27989,0 5.64543,12.13429 11.92343,26.96515 22.87943,54.0492 33.5395,77.26058 57.3492,124.87302 21.0649,42.12364 39.6509,77.7809 74.6826,143.27877 4.5848,8.57188 8.3359,15.86726 8.3359,16.21198 0,0.3447 -3.0568,-0.9959 -6.7928,-2.97914 -3.7361,-1.98323 -9.8156,-4.8965 -13.5101,-6.47394 -6.8832,-2.93886 -26.0847,-9.58201 -27.6961,-9.58201 -0.4938,0 3.9551,2.91365 9.8863,6.47477 14.0202,8.41762 21.4874,13.71459 38.5243,27.32795 l 13.9972,11.18449 16.7581,31.07721 c 9.217,17.09248 16.5604,31.275 16.3186,31.51666 -0.2417,0.24171 -6.3008,-2.88263 -13.4646,-6.94298 -52.261,-29.6206 -94.3457,-48.04828 -129.2661,-56.60198 -6.7121,-1.64412 -12.6157,-3.11597 -13.1191,-3.27078 -0.6554,-0.20155 -0.5783,-1.99633 0.2718,-6.3204 1.6979,-8.63745 1.659,-28.05439 -0.076,-37.73839 -4.61308,-25.7511 -16.11371,-44.84714 -31.56154,-52.40547 -4.16034,-2.03558 -5.7204,-2.335 -12.19812,-2.34113 -6.69754,-0.007 -7.95177,0.25135 -12.76211,2.62202 -23.34932,11.50737 -36.96298,51.98302 -29.97429,89.11857 0.63326,3.36482 1.01503,6.2542 0.8484,6.42086 -0.16663,0.16664 -4.14457,1.17224 -8.83989,2.23467 -35.6691,8.07101 -77.70213,25.87571 -130.58573,55.31449 -18.06325,10.05532 -19.15794,10.61274 -19.15794,9.75537 z"
       id="path24"
       sodipodi:nodetypes="ssssssscssssssssssssscsssssssscsssssss"
       transform="matrix(1.1139965,0,0,1.1139965,-109.43666,-61.5588)" /><path
       style="fill:#458588;stroke:#d8dee9;stroke-width:2.223;stroke-opacity:1;stroke-dasharray:none"
       d="m 760.05461,739.71976 c 0,-0.23903 8.75909,-16.26369 19.46474,-35.6104 55.06109,-99.5041 89.55589,-164.02989 113.31916,-211.97441 6.8968,-13.91486 12.8292,-25.30815 13.1832,-25.31841 0.35395,-0.0103 3.31806,1.99 6.58686,4.44501 9.34892,7.02132 19.79217,13.29264 32.4268,19.47268 6.41458,3.1376 11.91749,5.70473 12.22875,5.70473 0.31131,0 -2.15812,-2.10652 -5.48766,-4.68115 -17.62909,-13.63244 -40.70343,-35.57316 -39.95629,-37.99334 0.23354,-0.75646 4.65452,-10.82349 9.82452,-22.3712 5.16994,-11.54766 15.83703,-36.83521 23.70468,-56.19452 C 953.21692,355.83943 959.88315,340 960.16297,340 c 0.27989,0 5.64543,12.13429 11.92343,26.96515 22.87943,54.0492 33.5395,77.26058 57.3492,124.87302 21.0649,42.12364 39.6509,77.7809 74.6826,143.27877 4.5848,8.57188 8.3359,15.86726 8.3359,16.21198 0,0.3447 -3.0568,-0.9959 -6.7928,-2.97914 -3.7361,-1.98323 -9.8156,-4.8965 -13.5101,-6.47394 -6.8832,-2.93886 -26.0847,-9.58201 -27.6961,-9.58201 -0.4938,0 3.9551,2.91365 9.8863,6.47477 14.0202,8.41762 21.4874,13.71459 38.5243,27.32795 l 13.9972,11.18449 16.7581,31.07721 c 9.217,17.09248 16.5604,31.275 16.3186,31.51666 -0.2417,0.24171 -6.3008,-2.88263 -13.4646,-6.94298 -52.261,-29.6206 -94.3457,-48.04828 -129.2661,-56.60198 -6.7121,-1.64412 -12.6157,-3.11597 -13.1191,-3.27078 -0.6554,-0.20155 -0.5783,-1.99633 0.2718,-6.3204 1.6979,-8.63745 1.659,-28.05439 -0.076,-37.73839 -4.61308,-25.7511 -16.11371,-44.84714 -31.56154,-52.40547 -4.16034,-2.03558 -5.7204,-2.335 -12.19812,-2.34113 -6.69754,-0.007 -7.95177,0.25135 -12.76211,2.62202 -23.34932,11.50737 -36.96298,51.98302 -29.97429,89.11857 0.63326,3.36482 1.01503,6.2542 0.8484,6.42086 -0.16663,0.16664 -4.14457,1.17224 -8.83989,2.23467 -35.6691,8.07101 -77.70213,25.87571 -130.58573,55.31449 -18.06325,10.05532 -19.15794,10.61274 -19.15794,9.75537 z"
       id="path1"
       sodipodi:nodetypes="ssssssscssssssssssssscsssssssscsssssss" /><path
       style="fill:#eceff4;stroke-width:2;stroke:#d8dee9;stroke-opacity:1;stroke-dasharray:none;filter:url(#filter25);opacity:0.5"
       d="m 1771.1026,1019.7964 c -14.1564,-1.613 -27.6127,-6.9213 -39.3123,-15.5079 -2.4225,-1.7779 -12.3928,-11.40122 -29.6253,-28.59482 -27.8583,-27.795 -27.7537,-27.6748 -28.5639,-32.8419 -1.0911,-6.95728 2.5605,-13.89606 8.9691,-17.04346 2.116,-1.0392 2.8832,-1.1734 6.7072,-1.1734 7.3754,0 5.3404,-1.617 34.7596,27.61936 18.8485,18.7315 26.5264,26.081 28.8253,27.5923 4.3275,2.8448 9.5799,5.2291 14.626,6.6393 3.9298,1.0982 4.8676,1.191 12.0343,1.191 6.7977,0 8.2596,-0.1281 11.6585,-1.0239 17.3892,-4.5818 30.2332,-17.4258 34.815,-34.8151 0.8957,-3.3988 1.024,-4.8607 1.024,-11.65848 0,-7.16648 -0.093,-8.10428 -1.1911,-12.03418 -1.4023,-5.0181 -3.8109,-10.3353 -6.6387,-14.6554 -1.4925,-2.28 -8.8147,-9.9256 -27.5785,-28.796 -29.2537,-29.4199 -27.6338,-27.3824 -27.6338,-34.7596 0,-3.8239 0.1342,-4.5912 1.1735,-6.7072 3.1473,-6.4086 10.0862,-10.0602 17.0435,-8.9691 5.1672,0.8103 5.0468,0.7056 32.8419,28.5638 17.1935,17.2327 26.8169,27.2029 28.5948,29.6253 20.4372,27.8466 21.3021,63.97006 2.215,92.51416 -16.2709,24.33282 -45.8657,38.12582 -74.7441,34.83522 z m 4.0097,-64.02292 c -1.0008,-0.3283 -2.6524,-1.0915 -3.6703,-1.696 -1.0179,-0.6045 -12.8468,-12.1397 -26.2865,-25.63396 -27.787,-27.8995 -26.4588,-26.2367 -26.4955,-33.1707 -0.018,-3.4752 0.1204,-4.183 1.3158,-6.6928 1.6981,-3.5671 4.3802,-6.2491 7.9473,-7.9474 2.5099,-1.1951 3.2175,-1.3341 6.6927,-1.3156 6.9391,0.036 5.2467,-1.3179 33.3757,26.7112 28.6294,28.52748 27.5193,27.1403 27.492,34.35956 -0.014,3.6327 -0.1606,4.4092 -1.2654,6.6909 -2.6794,5.5338 -7.687,8.8444 -13.8095,9.1296 -2.2149,0.1034 -4.1372,-0.054 -5.2963,-0.4348 z m -122.7339,-33.55336 c -4.8382,-0.9485 -9.3817,-4.6187 -11.5935,-9.3654 -0.976,-2.0947 -1.1515,-3.0598 -1.1572,-6.3644 0,-3.5271 0.1256,-4.1639 1.3928,-6.7381 3.4815,-7.072 10.9661,-10.6966 18.2394,-8.8332 11.8553,3.0371 16.1691,17.1304 8.0825,26.4056 -1.826,2.0943 -5.6859,4.2261 -8.8517,4.8885 -2.584,0.5406 -3.3856,0.5414 -6.1123,0 z m 43.7153,-45.4681 c -4.4766,-1.461 -7.9923,-4.5723 -9.9964,-8.8464 -0.9981,-2.1286 -1.1354,-2.9572 -1.1178,-6.7448 0.016,-3.4923 0.2003,-4.7134 0.9637,-6.3864 1.3095,-2.8705 4.9135,-6.5405 7.8198,-7.9632 2.1484,-1.0518 2.9126,-1.1868 6.7411,-1.1905 3.7787,0 4.624,0.1391 6.7685,1.1444 3.4308,1.6083 6.1409,4.2615 7.8045,7.6409 1.2855,2.611 1.4034,3.1962 1.4034,6.9618 0,3.6749 -0.1346,4.3854 -1.2693,6.6963 -1.611,3.2812 -4.5109,6.1884 -7.7572,7.7765 -3.0302,1.4826 -8.3117,1.9063 -11.3603,0.9114 z m 47.0399,-44.7817 c -10.1856,-1.7143 -16.2532,-12.96314 -12.0015,-22.25009 1.4912,-3.2571 4.5809,-6.37774 7.9632,-8.04285 2.5705,-1.26544 3.2172,-1.39957 6.7473,-1.39957 3.5381,0 4.1736,0.13258 6.776,1.41374 6.6136,3.25588 10.3567,10.46459 8.969,17.27303 -1.316,6.45643 -6.5164,11.87374 -12.3146,12.82804 -3.2853,0.5407 -3.8805,0.558 -6.1394,0.1777 z"
       id="path25" /><path
       style="fill:#689d6a;stroke-width:2;stroke:#d8dee9;stroke-opacity:1;stroke-dasharray:none"
       d="m 1771.1026,1019.7964 c -14.1564,-1.613 -27.6127,-6.9213 -39.3123,-15.5079 -2.4225,-1.7779 -12.3928,-11.40122 -29.6253,-28.59482 -27.8583,-27.795 -27.7537,-27.6748 -28.5639,-32.8419 -1.0911,-6.95728 2.5605,-13.89606 8.9691,-17.04346 2.116,-1.0392 2.8832,-1.1734 6.7072,-1.1734 7.3754,0 5.3404,-1.617 34.7596,27.61936 18.8485,18.7315 26.5264,26.081 28.8253,27.5923 4.3275,2.8448 9.5799,5.2291 14.626,6.6393 3.9298,1.0982 4.8676,1.191 12.0343,1.191 6.7977,0 8.2596,-0.1281 11.6585,-1.0239 17.3892,-4.5818 30.2332,-17.4258 34.815,-34.8151 0.8957,-3.3988 1.024,-4.8607 1.024,-11.65848 0,-7.16648 -0.093,-8.10428 -1.1911,-12.03418 -1.4023,-5.0181 -3.8109,-10.3353 -6.6387,-14.6554 -1.4925,-2.28 -8.8147,-9.9256 -27.5785,-28.796 -29.2537,-29.4199 -27.6338,-27.3824 -27.6338,-34.7596 0,-3.8239 0.1342,-4.5912 1.1735,-6.7072 3.1473,-6.4086 10.0862,-10.0602 17.0435,-8.9691 5.1672,0.8103 5.0468,0.7056 32.8419,28.5638 17.1935,17.2327 26.8169,27.2029 28.5948,29.6253 20.4372,27.8466 21.3021,63.97006 2.215,92.51416 -16.2709,24.33282 -45.8657,38.12582 -74.7441,34.83522 z m 4.0097,-64.02292 c -1.0008,-0.3283 -2.6524,-1.0915 -3.6703,-1.696 -1.0179,-0.6045 -12.8468,-12.1397 -26.2865,-25.63396 -27.787,-27.8995 -26.4588,-26.2367 -26.4955,-33.1707 -0.018,-3.4752 0.1204,-4.183 1.3158,-6.6928 1.6981,-3.5671 4.3802,-6.2491 7.9473,-7.9474 2.5099,-1.1951 3.2175,-1.3341 6.6927,-1.3156 6.9391,0.036 5.2467,-1.3179 33.3757,26.7112 28.6294,28.52748 27.5193,27.1403 27.492,34.35956 -0.014,3.6327 -0.1606,4.4092 -1.2654,6.6909 -2.6794,5.5338 -7.687,8.8444 -13.8095,9.1296 -2.2149,0.1034 -4.1372,-0.054 -5.2963,-0.4348 z m -122.7339,-33.55336 c -4.8382,-0.9485 -9.3817,-4.6187 -11.5935,-9.3654 -0.976,-2.0947 -1.1515,-3.0598 -1.1572,-6.3644 0,-3.5271 0.1256,-4.1639 1.3928,-6.7381 3.4815,-7.072 10.9661,-10.6966 18.2394,-8.8332 11.8553,3.0371 16.1691,17.1304 8.0825,26.4056 -1.826,2.0943 -5.6859,4.2261 -8.8517,4.8885 -2.584,0.5406 -3.3856,0.5414 -6.1123,0 z m 43.7153,-45.4681 c -4.4766,-1.461 -7.9923,-4.5723 -9.9964,-8.8464 -0.9981,-2.1286 -1.1354,-2.9572 -1.1178,-6.7448 0.016,-3.4923 0.2003,-4.7134 0.9637,-6.3864 1.3095,-2.8705 4.9135,-6.5405 7.8198,-7.9632 2.1484,-1.0518 2.9126,-1.1868 6.7411,-1.1905 3.7787,0 4.624,0.1391 6.7685,1.1444 3.4308,1.6083 6.1409,4.2615 7.8045,7.6409 1.2855,2.611 1.4034,3.1962 1.4034,6.9618 0,3.6749 -0.1346,4.3854 -1.2693,6.6963 -1.611,3.2812 -4.5109,6.1884 -7.7572,7.7765 -3.0302,1.4826 -8.3117,1.9063 -11.3603,0.9114 z m 47.0399,-44.7817 c -10.1856,-1.7143 -16.2532,-12.96314 -12.0015,-22.25009 1.4912,-3.2571 4.5809,-6.37774 7.9632,-8.04285 2.5705,-1.26544 3.2172,-1.39957 6.7473,-1.39957 3.5381,0 4.1736,0.13258 6.776,1.41374 6.6136,3.25588 10.3567,10.46459 8.969,17.27303 -1.316,6.45643 -6.5164,11.87374 -12.3146,12.82804 -3.2853,0.5407 -3.8805,0.558 -6.1394,0.1777 z"
       id="path2" /></g></svg>
