<?xml version="1.0" encoding="UTF-8" standalone="no"?>
<!-- Created with Inkscape (http://www.inkscape.org/) -->

<svg
   width="1920"
   height="1080"
   viewBox="0 0 1920 1080"
   version="1.1"
   id="svg1"
   inkscape:version="1.4.2 (ebf0e940d0, 2025-05-08)"
   xml:space="preserve"
   sodipodi:docname="arch-center-text.svg"
   xmlns:inkscape="http://www.inkscape.org/namespaces/inkscape"
   xmlns:sodipodi="http://sodipodi.sourceforge.net/DTD/sodipodi-0.dtd"
   xmlns="http://www.w3.org/2000/svg"
   xmlns:svg="http://www.w3.org/2000/svg"><sodipodi:namedview
     id="namedview1"
     pagecolor="#505050"
     bordercolor="#eeeeee"
     borderopacity="1"
     inkscape:showpageshadow="0"
     inkscape:pageopacity="0"
     inkscape:pagecheckerboard="0"
     inkscape:deskcolor="#505050"
     inkscape:document-units="px"
     inkscape:zoom="0.53229427"
     inkscape:cx="892.36354"
     inkscape:cy="521.32817"
     inkscape:window-width="1896"
     inkscape:window-height="1020"
     inkscape:window-x="10"
     inkscape:window-y="46"
     inkscape:window-maximized="1"
     inkscape:current-layer="g6" /><defs
     id="defs1" /><g
     inkscape:label="Layer 1"
     inkscape:groupmode="layer"
     id="layer1"><rect
       style="fill:#002b36"
       id="rect1"
       width="1920"
       height="1080"
       x="0"
       y="0" /><g
       id="g4"
       transform="matrix(2.0262897,0,0,2.0262897,-758.4232,2182.968)"><g
         id="g6"
         transform="matrix(0.15567036,0,0,0.15567036,98.180818,-337.69796)"><path
           style="fill:#859900"
           d="m 6046.5933,-2781.2333 c -21.6993,-2.0848 -35.7349,-5.7156 -51.3254,-13.2771 -30.2858,-14.6889 -51.1532,-41.9995 -58.0694,-75.9994 -0.9609,-4.7236 -1.0205,-7.3994 -1.3897,-62.4293 -0.2121,-31.6219 -0.5516,-92.0394 -0.7543,-134.2613 l -0.3686,-76.7669 21.9014,-4.466 c 12.0456,-2.4563 21.9716,-4.4101 22.0576,-4.3418 0.086,0.068 0.3406,59.0533 0.5658,131.0778 l 0.4095,130.9535 1.2524,5.4287 c 7.0979,30.768 27.3207,52.3598 55.8915,59.675 10.1125,2.5892 13.752,2.9663 28.5827,2.9615 14.7576,0 19.9968,-0.4846 32.3251,-2.9604 12.3345,-2.477 21.836,-5.7008 33.3121,-11.3023 29.6403,-14.4676 50.2969,-39.7253 57.9261,-70.8287 3.5113,-14.3151 3.2695,-5.0812 3.2695,-124.8187 v -107.7925 l 20.1602,-5.1312 c 11.0882,-2.8221 20.2853,-5.0061 20.4381,-4.8533 0.2634,0.2634 1.4201,223.5065 1.6201,312.6712 l 0.093,41.6986 -19.6754,4.051 c -10.8215,2.228 -20.1751,4.0617 -20.7859,4.0748 l -1.1104,0.024 -0.031,-36.8901 c -0.03,-34.5251 -0.083,-36.7794 -0.838,-35.1628 -8.0866,17.3219 -12.3563,24.1224 -22.6276,36.0402 -16.896,19.6043 -42.7023,34.0749 -70.7638,39.68 -12.1775,2.4324 -16.6202,2.8245 -33.8056,2.9842 -8.9573,0.083 -17.1743,0.066 -18.26,-0.038 z m 489.9461,-5.2185 c -1.0592,-1.4456 -26.7598,-37.1619 -57.1125,-79.3696 -30.3526,-42.2077 -55.5777,-77.157 -56.0557,-77.6651 -0.8382,-0.8912 -2.8481,1.849 -56.7545,77.3762 -30.737,43.0651 -56.1225,78.2211 -56.412,78.1246 -1.3173,-0.4391 -30.3819,-22.3713 -30.2265,-22.809 0.096,-0.2714 26.8515,-38.3034 59.4559,-84.5155 32.6043,-46.2121 59.2806,-84.1417 59.2806,-84.2881 0,-0.1464 -25.1222,-33.1421 -55.8272,-73.3237 -30.705,-40.1816 -55.6336,-73.2284 -55.3968,-73.4374 1.8955,-1.6732 28.001,-21.843 28.4612,-21.99 0.3261,-0.1041 24.1335,29.8852 52.9053,66.643 28.7718,36.7578 52.4234,66.8277 52.5591,66.8221 0.1357,-0.01 20.2339,-28.5634 44.6629,-63.4617 24.4289,-34.8983 44.6521,-63.7845 44.9404,-64.1915 0.4321,-0.6101 3.1649,1.4946 15.5456,11.9725 8.2617,6.992 15.0215,12.8954 15.0215,13.1186 0,0.2232 -21.7639,30.9725 -48.3643,68.3319 -26.6003,37.3593 -48.7664,68.5533 -49.2579,69.32 l -0.8938,1.394 60.8174,84.2964 c 33.4496,46.363 61.3519,85.0068 62.0052,85.875 l 1.1877,1.5787 -13.4875,10.7058 c -7.4181,5.8882 -13.8567,11.0243 -14.3079,11.4135 -0.736,0.6348 -1.0188,0.437 -2.7462,-1.9207 z m -701.4164,-132.7691 c 0,-142.3331 0.2303,-131.6052 -3.0257,-140.9627 -7.3063,-20.9977 -23.7342,-39.5814 -43.6937,-49.4277 -14.6024,-7.2036 -30.6945,-10.2998 -50.5026,-9.717 -23.1449,0.681 -42.4154,5.4773 -62.542,15.5665 -30.6686,15.3737 -54.7336,42.0879 -59.6354,66.2004 -0.7976,3.9234 -0.8352,11.6089 -0.5863,119.7783 l 0.2659,115.5858 -2.5376,0.7195 c -7.4131,2.102 -39.3558,10.2871 -39.5035,10.1225 -0.095,-0.1058 -0.4209,-60.1542 -0.7243,-133.4409 -0.3034,-73.2866 -0.6929,-153.0136 -0.8655,-177.1711 l -0.3139,-43.9226 20.175,-4.0772 c 11.0963,-2.2425 20.4527,-4.0746 20.7919,-4.0715 0.4758,0 0.6169,2.6411 0.6169,11.5222 0,6.334 0.1476,22.8947 0.3279,36.8016 l 0.3279,25.2854 1.0972,-2.6969 c 3.1373,-7.7112 9.068,-18.1838 14.4428,-25.5034 13.1748,-17.9418 29.6066,-31.1246 50.028,-40.136 14.4732,-6.3867 29.8406,-10.1234 48.2128,-11.7234 8.7471,-0.7618 33.3442,-0.3162 41.02,0.7431 33.7336,4.6555 59.1133,17.613 77.4043,39.5188 12.1851,14.593 20.9761,34.1569 23.7679,52.8939 0.381,2.5567 1.7286,184.8307 1.9591,264.9741 l 0.013,4.4873 -6.2923,1.3348 c -3.4608,0.7341 -11.6778,2.51 -18.26,3.9464 l -11.9677,2.6117 z m -367.1947,91.0299 c -0.012,-19.2039 -0.3238,-96.9876 -0.6938,-172.8529 -0.37,-75.8653 -0.5271,-138.088 -0.349,-138.2727 0.3824,-0.3969 35.751,-16.2321 35.8808,-16.0645 0.1674,0.2159 0.654,355.1969 0.4869,355.1969 -0.092,0 -7.6504,1.5546 -16.797,3.4546 -9.1466,1.9 -17.0524,3.4546 -17.5684,3.4546 -0.9131,0 -0.9389,-0.9408 -0.9595,-34.916 z m -113.1714,-4.7728 c -0.5171,-66.4598 -1.3081,-454.0176 -0.9274,-454.3522 0.5504,-0.4837 40.6792,-10.401 40.9579,-10.1222 0.2287,0.2287 2.0348,406.1963 2.0766,466.7702 l 0.02,28.491 -1.1105,0.2696 c -0.6107,0.1483 -10.0226,1.7802 -20.9154,3.6264 l -19.8049,3.3567 z m 1266.9094,-0.1624 -0.1306,-15.1755 -5.7987,-0.139 -5.7988,-0.1391 v -1.9584 -1.9583 h 13.8184 13.8183 v 1.974 1.9741 h -5.6755 -5.6754 v 15.2989 15.2989 h -2.2137 -2.2136 z m 20.8436,-2.0974 v -17.2729 h 3.4166 3.4166 l 4.8435,14.5586 c 4.2503,12.7756 5.5963,16.1386 5.5963,13.9824 0,-0.3169 2.1653,-6.8678 4.8117,-14.5575 l 4.8118,-13.9812 3.0844,-10e-4 h 3.0845 v 17.2729 17.273 h -2.2132 -2.2133 l -0.1309,-14.1049 -0.131,-14.1048 -4.8831,14.1048 -4.8831,14.1049 h -2.0916 -2.0917 l -4.9649,-14.4353 -4.9649,-14.4352 -0.028,14.4352 -0.028,14.4353 h -2.2208 -2.2209 z m -1164.0186,-408.9766 c -9.796,-10.9845 -20.1653,-22.9814 -20.1653,-23.3305 0,-0.4344 28.4044,-23.6987 28.9347,-23.6987 0.3851,0 23.7878,25.9296 24.0209,26.6146 0.082,0.2421 -6.0249,5.5985 -13.5716,11.9032 -7.5468,6.3047 -14.0854,11.7777 -14.5303,12.1623 -0.7224,0.6244 -1.2239,0.2339 -4.6884,-3.6509 z"
           id="path3"
           sodipodi:nodetypes="ssssscssscssssssscssscsscscsssssssssssssssssssssssscsscsssssssssscsssscscsscsssssssscsscssssssssssssscsscscccccccccccccccccccccsssccccccccccccccccccccsssssss" /><path
           style="fill:#dc322f"
           d="m 5185.6655,-2788.9493 c 0,-3.8679 -0.341,-64.2184 -0.7643,-134.1121 -0.8478,-139.9983 -0.5294,-128.9694 -3.9169,-135.6866 -6.1496,-12.1946 -18.777,-22.4016 -34.3117,-27.735 -9.113,-3.1287 -16.4191,-4.3095 -29.1173,-4.7058 -22.8283,-0.7126 -42.8387,3.9681 -60.4176,14.1324 -17.0803,9.876 -29.6395,24.5018 -33.4107,38.9086 -0.9761,3.7288 -1.0043,5.9731 -1.5218,121.0085 -0.2899,64.4652 -0.574,117.2682 -0.6313,117.3402 -0.2625,0.3301 -90.266,16.3732 -90.5064,16.1328 -0.2884,-0.2884 -1.0723,-490.8997 -0.7848,-491.1972 0.093,-0.096 20.3363,-4.9177 44.9861,-10.7155 24.6498,-5.7978 45.3174,-10.6649 45.9282,-10.8159 l 1.1104,-0.2746 v 68.5768 68.5768 l -3.3313,2.8014 c -15.2974,12.8642 -33.0836,31.6001 -50.1053,52.7806 -3.2721,4.0715 -6.3009,7.8315 -6.7307,8.3556 -0.7436,0.9067 -0.7331,0.9187 0.2159,0.2468 0.5486,-0.3884 4.2129,-3.2755 8.143,-6.4158 8.7133,-6.9625 17.0324,-13.213 33.6501,-25.2829 6.9775,-5.0679 16.527,-12.0612 21.2211,-15.5406 9.2362,-6.8462 11.9234,-8.4938 18.7615,-11.5029 13.7119,-6.0341 31.3754,-10.1335 51.8276,-12.0285 9.6974,-0.8986 30.9776,-1.0288 40.5182,-0.2481 43.0803,3.5254 82.5621,18.5831 111.3652,42.4727 13.9781,11.5935 24.0715,25.0529 26.8526,35.8074 0.7078,2.737 0.7842,17.0224 0.7842,146.6873 v 143.6549 l -1.1105,0.2497 c -1.5564,0.3498 -87.9273,15.5616 -88.3575,15.5616 -0.1932,0 -0.349,-3.1647 -0.346,-7.0326 z m -1089.435,1.8498 c -0.5429,-0.098 -3.4299,-0.4275 -6.4157,-0.7332 -2.9857,-0.3057 -9.4392,-1.3178 -14.3411,-2.2493 -41.7114,-7.9259 -75.5951,-29.7549 -95.7214,-61.6668 -3.483,-5.5226 -9.4408,-17.6818 -11.7739,-24.0293 -8.0796,-21.9817 -11.5137,-48.5979 -9.6663,-74.92 3.1745,-45.2303 25.1209,-78.137 65.6188,-98.3897 20.3937,-10.1988 41.0462,-15.9186 68.9176,-19.087 11.3429,-1.2895 32.4593,-1.8037 41.7798,-1.0174 25.0481,2.1131 45.375,10.1466 58.4924,23.1171 l 4.1748,4.1281 -0.2679,-7.7983 c -0.2909,-8.467 -1.2103,-13.8931 -3.2016,-18.8948 -5.2521,-13.192 -17.5452,-20.9102 -39.6077,-24.8677 -9.2615,-1.6613 -14.7005,-2.0362 -29.3641,-2.0241 -12.6378,0.01 -16.0336,0.1784 -23.1951,1.1468 -23.84,3.2238 -54.5655,9.3801 -88.8323,17.7987 -5.4286,1.3337 -9.9088,2.387 -9.956,2.3406 -0.2114,-0.2078 17.1627,-93.4318 17.5347,-94.0858 1.1178,-1.965 28.0325,-8.5877 48.1883,-11.8573 22.3228,-3.6212 42.162,-5.1863 65.1437,-5.1393 36.6817,0.075 62.9636,4.2067 87.256,13.7171 39.4887,15.4597 63.5171,44.7014 70.6207,85.9429 2.4436,14.187 2.4023,12.346 2.332,103.8788 -0.036,47.0934 -0.2084,106.8726 -0.3828,132.8427 l -0.3171,47.2182 -1.0391,0.2505 c -2.1452,0.517 -80.7678,13.6391 -81.7205,13.6391 -0.9543,0 -0.9949,-0.308 -0.9923,-7.5261 v -7.526 l 3.7589,-4.1949 c 11.0653,-12.3483 22.8067,-28.4455 33.8373,-46.3902 3.9599,-6.4419 14.3382,-24.2894 15.0663,-25.9094 0.122,-0.2715 -1.2961,1.1713 -3.1513,3.206 -9.0202,9.8931 -18.8565,20.1221 -36.8762,38.3485 -16.3567,16.5444 -20.6119,20.5729 -25.1691,23.8279 -20.2528,14.4658 -40.0455,22.0811 -66.9268,25.75 -5.1226,0.6992 -10.802,1.0271 -19.9873,1.1539 -7.0572,0.097 -13.2755,0.097 -13.8184,-3e-4 z m 36.7455,-84.9379 c 25.633,-3.956 48.9972,-17.8781 58.4358,-34.8203 4.332,-7.776 6.1147,-15.649 5.5437,-24.4824 -0.3807,-5.8875 -1.2077,-10.1873 -2.9183,-15.1726 -7.0474,-20.5385 -28.2467,-35.0918 -57.5854,-39.5322 -7.7965,-1.1801 -22.6144,-1.1894 -29.364,-0.018 -25.9409,4.5 -47.3626,19.2617 -55.5496,38.2793 -4.3617,10.1317 -4.595,21.1636 -0.6818,32.233 7.146,20.2137 29.2531,37.5224 55.002,43.0636 8.2729,1.7804 17.5051,1.9336 27.1176,0.45 z m 602.8472,84.6382 c -48.8694,-2.647 -92.0173,-17.9248 -125.1056,-44.2971 -6.3938,-5.0961 -19.6171,-18.382 -24.8699,-24.9876 -15.9622,-20.0733 -26.9806,-43.207 -33.3513,-70.0229 -11.0604,-46.556 -6.7582,-104.91 10.8273,-146.857 21.4875,-51.2547 63.999,-83.8194 124.6287,-95.4682 18.1192,-3.4813 32.5697,-4.7226 55.0267,-4.7271 20.3752,0 34.1832,1.1657 50.071,4.2416 34.0526,6.5928 66.9322,21.4907 91.7878,41.5898 4.656,3.7649 14.0913,12.3953 14.0913,12.8891 0,0.3004 -56.3981,65.8785 -58.7572,68.3212 -0.9101,0.9423 -0.9642,0.9196 -3.7783,-1.5876 -13.8404,-12.331 -27.5114,-20.3445 -44.8281,-26.2769 -20.8771,-7.1521 -43.9042,-8.0537 -67.9597,-2.6608 -29.781,6.6764 -53.1739,21.6506 -66.8028,42.7617 -15.2578,23.6342 -18.7852,58.1944 -9.0046,88.2245 3.1799,9.7635 8.2304,20.0836 13.6457,27.8835 30.0773,43.3213 85.8898,58.7868 135.081,37.4307 15.1589,-6.5812 30.2377,-17.6827 40.6826,-29.9519 l 3.156,-3.7072 19.289,18.8692 c 21.0874,20.6284 29.7393,28.9538 36.6975,35.3131 2.5041,2.2886 4.5529,4.329 4.5529,4.5343 0,0.8617 -11.1712,13.4521 -16.5894,18.6969 -37.0376,35.852 -88.3223,53.0477 -148.4906,49.7887 z m -386.7604,-177.7342 c 0.085,-97.7834 0.3067,-182.6684 0.4935,-188.6334 l 0.3398,-10.8455 43.6759,-7.5217 c 24.0217,-4.137 43.9535,-7.529 44.2928,-7.5379 0.4864,-0.013 0.6169,5.8531 0.6169,27.7285 v 27.7446 l 3.0024,-2.9456 c 1.6514,-1.6201 4.8084,-5.0554 7.0155,-7.634 14.5264,-16.971 22.8867,-23.4418 38.8398,-30.0616 21.3103,-8.8429 47.6809,-12.9554 90.7563,-14.1537 11.1296,-0.3096 11.5379,-0.2878 11.2835,0.6026 -0.4392,1.5368 -18.1316,42.9227 -24.5518,57.431 -3.3031,7.4644 -8.1146,17.8133 -10.6922,22.9975 l -4.6865,9.4259 -6.7491,0.3143 c -3.7121,0.1729 -9.0876,0.6331 -11.9456,1.0226 -37.2912,5.0821 -70.8536,27.0516 -81.1169,53.098 -2.9838,7.5725 -2.7754,-0.4077 -3.107,118.9474 l -0.3037,109.3239 -48.1651,9.2587 c -26.4909,5.0924 -48.3873,9.2515 -48.6587,9.2426 -0.3284,-0.011 -0.4421,-59.5127 -0.3398,-177.8042 z"
           id="path5"
           sodipodi:nodetypes="csssssssssssscccssssssssssssscssccssssssssscsssssssssssssscssccssssssssccssssscssssssssssscsssssssssssscssssssscssscssssssscsssscsss" /><path
           style="fill:#b58900"
           d="m 2959.1652,-2494.3822 c 0.4456,-0.8618 17.1482,-31.0337 37.1169,-67.0487 173.5073,-312.9345 276.7873,-506.8495 351.163,-659.3315 l 9.2222,-18.9071 7.2964,5.8446 c 29.6869,23.78 67.0844,46.3287 109.947,66.2923 14.7301,6.8606 38.2052,16.9852 37.2392,16.0609 -0.3956,-0.3785 -5.7161,-4.2955 -11.8233,-8.7045 -27.4711,-19.832 -54.3829,-41.9516 -78.962,-64.9011 -9.0116,-8.4141 -33.8955,-33.2117 -44.0948,-43.9417 l -3.7964,-3.994 9.1845,-19.9414 c 31.2952,-67.9476 47.851,-107.2555 111.7566,-265.3405 6.0624,-14.9967 11.1496,-27.2614 11.305,-27.2551 0.1554,0.01 6.5927,14.9413 14.3051,33.1887 35.7526,84.59 58.5187,137.6152 74.95,174.5687 61.6474,138.6426 146.0222,305.4584 299.721,592.5727 13.2552,24.7611 24.6728,46.1498 25.3724,47.5305 l 1.2721,2.5103 -1.1339,-0.595 c -0.6236,-0.3273 -4.132,-2.3113 -7.7963,-4.4089 -27.8713,-15.9547 -65.4766,-31.5142 -106.3521,-44.0039 -10.4834,-3.2033 -33.8056,-9.7534 -33.8056,-9.4944 0,0.085 2.3874,1.4168 5.3053,2.9601 53.5977,28.3477 90.4461,52.8852 142.9294,95.1771 8.1068,6.5325 20.2937,16.3303 27.0821,21.7728 l 12.3425,9.8955 46.0849,85.3077 c 25.3467,46.9193 46.025,85.3676 45.9518,85.4408 -0.073,0.073 -6.3486,-3.4261 -13.9453,-7.7764 -170.0678,-97.3879 -293.2874,-150.7118 -401.1915,-173.6177 -6.4987,-1.3795 -11.861,-2.5581 -11.9162,-2.619 -0.055,-0.061 0.4376,-2.8867 1.0953,-6.2796 1.5882,-8.1938 3.3705,-20.5354 4.4546,-30.8446 1.2818,-12.1904 1.2913,-49.1613 0.016,-61.1956 -3.2334,-30.503 -9.1378,-55.4104 -19.1279,-80.6894 -3.4594,-8.7536 -12.0715,-25.8143 -16.94,-33.5588 -19.9934,-31.8037 -44.4205,-51.1004 -72.5984,-57.3504 -4.2649,-0.9459 -6.376,-1.0932 -15.5456,-1.0847 -11.6754,0.011 -15.2155,0.5344 -24.6757,3.65 -29.6158,9.7535 -56.9531,38.4092 -74.475,78.0668 -16.3191,36.935 -24.0584,78.686 -23.083,124.5254 0.4379,20.5768 2.4236,38.0171 6.5674,57.684 0.6797,3.2259 1.0548,6.02 0.8334,6.2092 -0.2213,0.1891 -5.6213,1.4022 -11.9999,2.6957 -59.2267,12.01 -125.8202,34.5166 -199.3792,67.384 -41.6041,18.5895 -95.2229,45.4453 -144.846,72.5485 -20.8357,11.3801 -60.1218,33.4259 -75.4249,42.3255 -0.226,0.1314 -0.046,-0.4661 0.3993,-1.3278 z m 1097.831,-110.816 v -15.0522 h -5.6754 -5.6754 v -1.974 -1.9741 h 13.5716 13.5716 v 1.9741 1.974 h -5.6754 -5.6754 v 15.0522 15.0521 h -2.2208 -2.2208 z m 20.2341,-1.9741 v -17.0262 h 3.4135 3.4135 l 4.7705,14.3119 c 2.6238,7.8715 4.8341,14.3119 4.9117,14.3119 0.078,0 2.3355,-6.4403 5.0174,-14.3118 l 4.8763,-14.3117 3.0844,-1e-4 3.0845,-2e-4 v 17.0262 17.0262 h -2.2131 -2.2131 l -0.1311,-13.9417 -0.1311,-13.9418 -2.9017,8.3897 c -1.596,4.6144 -3.7884,10.8996 -4.8721,13.9672 l -1.9704,5.5774 -1.9757,-0.1488 -1.9756,-0.1488 -4.7498,-13.9381 -4.7498,-13.9381 -0.1309,14.0615 -0.131,14.0615 h -2.2132 -2.2132 z"
           id="path6"
           sodipodi:nodetypes="scscsssssscsscsssscssssssscsscsssscssssssssssssssscccccccccccccccccccccssscccccccccsscccccccccc" /></g></g></g></svg>
